<svg width="54" height="59" viewBox="0 0 54 59" fill="none" xmlns="http://www.w3.org/2000/svg">
<g id="Group 2">
<path id="A." d="M23.212 16.628L33.948 44.304C34.388 45.4187 34.8867 46.1667 35.444 46.548C36.0013 46.9 36.5147 47.0907 36.984 47.12V48C36.3973 47.9413 35.6787 47.912 34.828 47.912C33.9773 47.8827 33.1267 47.868 32.276 47.868C31.132 47.868 30.0613 47.8827 29.064 47.912C28.0667 47.912 27.26 47.9413 26.644 48V47.12C28.14 47.0613 29.0933 46.812 29.504 46.372C29.9147 45.9027 29.8267 44.92 29.24 43.424L21.056 21.556L21.76 20.984L14.104 40.872C13.6347 42.0453 13.356 43.0427 13.268 43.864C13.18 44.656 13.2533 45.2867 13.488 45.756C13.752 46.2253 14.1773 46.5627 14.764 46.768C15.38 46.9733 16.1427 47.0907 17.052 47.12V48C16.2307 47.9413 15.3653 47.912 14.456 47.912C13.576 47.8827 12.7547 47.868 11.992 47.868C11.2587 47.868 10.628 47.8827 10.1 47.912C9.60133 47.912 9.132 47.9413 8.692 48V47.12C9.27867 46.9733 9.88 46.636 10.496 46.108C11.112 45.5507 11.6693 44.612 12.168 43.292L22.508 16.628C22.6253 16.628 22.7427 16.628 22.86 16.628C22.9773 16.628 23.0947 16.628 23.212 16.628ZM28.58 35.328V36.208H15.468L15.908 35.328H28.58ZM42.2588 42.984C43.0215 42.984 43.6815 43.2627 44.2388 43.82C44.7962 44.3773 45.0748 45.0373 45.0748 45.8C45.0748 46.5627 44.7962 47.2227 44.2388 47.78C43.6815 48.3373 43.0215 48.616 42.2588 48.616C41.4962 48.616 40.8362 48.3373 40.2788 47.78C39.7215 47.2227 39.4428 46.5627 39.4428 45.8C39.4428 45.0373 39.7215 44.3773 40.2788 43.82C40.8362 43.2627 41.4962 42.984 42.2588 42.984Z" fill="#E5261F"/>
<rect id="Rectangle 1" x="2" y="7" width="50" height="50" stroke="#E5261F" stroke-width="4"/>
</g>
</svg>
