<svg width="265" height="62" viewBox="0 0 265 62" fill="none" xmlns="http://www.w3.org/2000/svg">
<g id="Group 1">
<path id="Anwalt" d="M18.664 17.92L30.328 47.968C30.776 49.12 31.272 49.92 31.816 50.368C32.392 50.784 32.904 51.008 33.352 51.04V52C32.392 51.936 31.256 51.904 29.944 51.904C28.664 51.872 27.368 51.856 26.056 51.856C24.584 51.856 23.192 51.872 21.88 51.904C20.568 51.904 19.528 51.936 18.76 52V51.04C20.392 50.976 21.416 50.704 21.832 50.224C22.28 49.712 22.184 48.64 21.544 47.008L13.384 24.688L14.248 23.44L6.952 42.448C6.248 44.208 5.816 45.648 5.656 46.768C5.528 47.888 5.608 48.752 5.896 49.36C6.216 49.968 6.712 50.4 7.384 50.656C8.088 50.88 8.92 51.008 9.88 51.04V52C8.824 51.936 7.816 51.904 6.856 51.904C5.896 51.872 4.92 51.856 3.928 51.856C3.224 51.856 2.552 51.872 1.912 51.904C1.304 51.904 0.76 51.936 0.28 52V51.04C0.952 50.912 1.64 50.48 2.344 49.744C3.048 49.008 3.736 47.76 4.408 46L15.352 17.92C15.864 17.952 16.408 17.968 16.984 17.968C17.592 17.968 18.152 17.952 18.664 17.92ZM22.024 38.176V39.136H7.72L8.2 38.176H22.024ZM52.0236 26.512C53.3676 26.512 54.4556 26.688 55.2876 27.04C56.1516 27.36 56.8236 27.808 57.3036 28.384C57.8156 28.992 58.1836 29.776 58.4076 30.736C58.6636 31.696 58.7916 32.992 58.7916 34.624V47.536C58.7916 48.88 59.0156 49.792 59.4636 50.272C59.9436 50.752 60.7436 50.992 61.8636 50.992V52C61.2556 51.968 60.3436 51.936 59.1276 51.904C57.9116 51.84 56.7116 51.808 55.5276 51.808C54.3116 51.808 53.1116 51.84 51.9276 51.904C50.7756 51.936 49.8956 51.968 49.2876 52V50.992C50.2476 50.992 50.9196 50.752 51.3036 50.272C51.6876 49.792 51.8796 48.88 51.8796 47.536V32.608C51.8796 31.808 51.7996 31.12 51.6396 30.544C51.4796 29.936 51.1916 29.472 50.7756 29.152C50.3596 28.8 49.7356 28.624 48.9036 28.624C48.0396 28.624 47.2396 28.864 46.5036 29.344C45.7996 29.824 45.2236 30.496 44.7756 31.36C44.3596 32.192 44.1516 33.136 44.1516 34.192V47.536C44.1516 48.88 44.3436 49.792 44.7276 50.272C45.1436 50.752 45.8156 50.992 46.7436 50.992V52C46.1676 51.968 45.3196 51.936 44.1996 51.904C43.1116 51.84 41.9756 51.808 40.7916 51.808C39.5756 51.808 38.3276 51.84 37.0476 51.904C35.7676 51.936 34.8076 51.968 34.1676 52V50.992C35.2876 50.992 36.0716 50.752 36.5196 50.272C36.9996 49.792 37.2396 48.88 37.2396 47.536V32.416C37.2396 30.976 37.0156 29.92 36.5676 29.248C36.1516 28.544 35.3516 28.192 34.1676 28.192V27.184C35.1916 27.28 36.1836 27.328 37.1436 27.328C38.4876 27.328 39.7356 27.28 40.8876 27.184C42.0716 27.056 43.1596 26.88 44.1516 26.656V30.976C44.9516 29.344 46.0396 28.192 47.4156 27.52C48.7916 26.848 50.3276 26.512 52.0236 26.512ZM74.7044 27.184V28.192C74.0004 28.192 73.3764 28.24 72.8324 28.336C72.3204 28.4 71.9684 28.624 71.7764 29.008C71.6164 29.392 71.6804 30.016 71.9684 30.88L76.5284 45.136L75.9044 45.808L81.5204 27.136L82.4804 27.568L75.1364 52.096C74.6244 52.064 74.1124 52.048 73.6004 52.048C73.0884 52.048 72.5604 52.064 72.0164 52.096L64.4324 30.88C63.9844 29.6 63.4884 28.832 62.9444 28.576C62.4324 28.32 62.0004 28.192 61.6484 28.192V27.184C62.6724 27.28 63.7284 27.36 64.8164 27.424C65.9364 27.456 67.1524 27.472 68.4644 27.472C69.4564 27.472 70.4964 27.44 71.5844 27.376C72.7044 27.312 73.7444 27.248 74.7044 27.184ZM99.7604 27.184V28.144C99.1524 28.304 98.5764 28.672 98.0324 29.248C97.4884 29.824 96.9764 30.832 96.4964 32.272L90.1124 52.096C89.6004 52.064 89.0724 52.048 88.5284 52.048C88.0164 52.048 87.5044 52.064 86.9924 52.096L80.2244 33.616L81.5204 27.136C82.0964 27.168 82.6724 27.184 83.2484 27.184C83.8564 27.152 84.4484 27.136 85.0244 27.136L91.6004 46.528L91.0724 46L94.2884 35.824C94.8324 34.064 95.0404 32.64 94.9124 31.552C94.7844 30.464 94.4004 29.648 93.7604 29.104C93.1204 28.56 92.2564 28.24 91.1684 28.144V27.184C91.6804 27.216 92.2244 27.248 92.8004 27.28C93.4084 27.28 94.0004 27.296 94.5764 27.328C95.1844 27.328 95.6964 27.328 96.1124 27.328C96.7524 27.328 97.4084 27.312 98.0804 27.28C98.7844 27.248 99.3444 27.216 99.7604 27.184ZM106.979 52.336C105.539 52.336 104.339 52.064 103.379 51.52C102.419 50.976 101.715 50.256 101.267 49.36C100.819 48.432 100.595 47.424 100.595 46.336C100.595 44.96 100.899 43.84 101.507 42.976C102.147 42.112 102.963 41.408 103.955 40.864C104.947 40.32 105.987 39.872 107.075 39.52C108.195 39.168 109.251 38.832 110.243 38.512C111.267 38.16 112.083 37.76 112.691 37.312C113.331 36.832 113.651 36.224 113.651 35.488V31.744C113.651 30.912 113.507 30.176 113.219 29.536C112.963 28.864 112.547 28.352 111.971 28C111.427 27.648 110.707 27.472 109.811 27.472C109.171 27.472 108.531 27.568 107.891 27.76C107.251 27.92 106.723 28.208 106.307 28.624C107.203 28.944 107.891 29.44 108.371 30.112C108.883 30.752 109.139 31.488 109.139 32.32C109.139 33.408 108.755 34.272 107.987 34.912C107.251 35.552 106.371 35.872 105.347 35.872C104.195 35.872 103.315 35.52 102.707 34.816C102.131 34.08 101.843 33.2 101.843 32.176C101.843 31.248 102.067 30.48 102.515 29.872C102.995 29.264 103.651 28.688 104.483 28.144C105.379 27.632 106.451 27.232 107.699 26.944C108.979 26.656 110.355 26.512 111.827 26.512C113.299 26.512 114.627 26.672 115.811 26.992C116.995 27.28 117.987 27.824 118.787 28.624C119.523 29.36 120.003 30.272 120.227 31.36C120.451 32.416 120.563 33.76 120.563 35.392V48.448C120.563 49.248 120.643 49.808 120.803 50.128C120.963 50.416 121.235 50.56 121.619 50.56C121.907 50.56 122.179 50.48 122.435 50.32C122.723 50.16 123.027 49.968 123.347 49.744L123.827 50.56C123.155 51.136 122.371 51.584 121.475 51.904C120.611 52.192 119.635 52.336 118.547 52.336C117.363 52.336 116.419 52.176 115.715 51.856C115.011 51.504 114.499 51.04 114.179 50.464C113.891 49.888 113.747 49.216 113.747 48.448C112.979 49.664 112.051 50.624 110.963 51.328C109.875 52 108.547 52.336 106.979 52.336ZM110.387 49.264C111.027 49.264 111.603 49.12 112.115 48.832C112.659 48.512 113.171 48 113.651 47.296V37.456C113.363 37.936 112.963 38.368 112.451 38.752C111.939 39.136 111.395 39.536 110.819 39.952C110.243 40.336 109.683 40.768 109.139 41.248C108.627 41.728 108.211 42.32 107.891 43.024C107.571 43.728 107.411 44.576 107.411 45.568C107.411 46.816 107.683 47.744 108.227 48.352C108.771 48.96 109.491 49.264 110.387 49.264ZM134.991 14.416V47.536C134.991 48.88 135.215 49.792 135.663 50.272C136.143 50.752 136.943 50.992 138.063 50.992V52C137.455 51.968 136.543 51.936 135.327 51.904C134.111 51.84 132.879 51.808 131.631 51.808C130.383 51.808 129.119 51.84 127.839 51.904C126.591 51.936 125.647 51.968 125.007 52V50.992C126.127 50.992 126.911 50.752 127.359 50.272C127.839 49.792 128.079 48.88 128.079 47.536V20.176C128.079 18.736 127.855 17.68 127.407 17.008C126.991 16.304 126.191 15.952 125.007 15.952V14.944C126.031 15.04 127.023 15.088 127.983 15.088C129.295 15.088 130.543 15.04 131.727 14.944C132.911 14.816 133.999 14.64 134.991 14.416ZM149.849 19.312V27.184H155.513V28.144H149.849V47.536C149.849 48.496 150.025 49.184 150.377 49.6C150.729 49.984 151.257 50.176 151.961 50.176C152.537 50.176 153.113 49.968 153.689 49.552C154.265 49.104 154.777 48.352 155.225 47.296L156.041 47.728C155.529 49.168 154.745 50.352 153.689 51.28C152.665 52.208 151.257 52.672 149.465 52.672C148.409 52.672 147.481 52.528 146.681 52.24C145.881 51.984 145.209 51.584 144.665 51.04C143.961 50.336 143.497 49.472 143.273 48.448C143.049 47.392 142.937 46.032 142.937 44.368V28.144H138.905V27.184H142.937V20.848C144.281 20.848 145.513 20.736 146.633 20.512C147.785 20.256 148.857 19.856 149.849 19.312Z" fill="#2F2F41"/>
<path id="Ayaz" d="M178.664 17.92L190.328 47.968C190.776 49.12 191.272 49.92 191.816 50.368C192.392 50.784 192.904 51.008 193.352 51.04V52C192.392 51.936 191.256 51.904 189.944 51.904C188.664 51.872 187.368 51.856 186.056 51.856C184.584 51.856 183.192 51.872 181.88 51.904C180.568 51.904 179.528 51.936 178.76 52V51.04C180.392 50.976 181.416 50.704 181.832 50.224C182.28 49.712 182.184 48.64 181.544 47.008L173.384 24.688L174.248 23.44L166.952 42.448C166.248 44.208 165.816 45.648 165.656 46.768C165.528 47.888 165.608 48.752 165.896 49.36C166.216 49.968 166.712 50.4 167.384 50.656C168.088 50.88 168.92 51.008 169.88 51.04V52C168.824 51.936 167.816 51.904 166.856 51.904C165.896 51.872 164.92 51.856 163.928 51.856C163.224 51.856 162.552 51.872 161.912 51.904C161.304 51.904 160.76 51.936 160.28 52V51.04C160.952 50.912 161.64 50.48 162.344 49.744C163.048 49.008 163.736 47.76 164.408 46L175.352 17.92C175.864 17.952 176.408 17.968 176.984 17.968C177.592 17.968 178.152 17.952 178.664 17.92ZM182.024 38.176V39.136H167.72L168.2 38.176H182.024ZM217.64 27.184V28.144C217.032 28.304 216.456 28.688 215.912 29.296C215.368 29.872 214.84 30.864 214.328 32.272L207.56 51.28L205.784 54.64L195.32 30.88C194.776 29.632 194.232 28.88 193.688 28.624C193.176 28.336 192.728 28.192 192.344 28.192V27.184C193.4 27.28 194.488 27.36 195.608 27.424C196.76 27.456 197.864 27.472 198.92 27.472C200.232 27.472 201.432 27.44 202.52 27.376C203.608 27.312 204.632 27.248 205.592 27.184V28.192C204.952 28.192 204.344 28.24 203.768 28.336C203.224 28.4 202.84 28.624 202.616 29.008C202.424 29.36 202.52 29.984 202.904 30.88L208.952 45.472L208.52 45.76L212.072 35.824C212.68 34.096 212.936 32.688 212.84 31.6C212.744 30.48 212.392 29.648 211.784 29.104C211.176 28.528 210.344 28.208 209.288 28.144V27.184C209.8 27.216 210.328 27.248 210.872 27.28C211.416 27.28 211.96 27.296 212.504 27.328C213.048 27.328 213.528 27.328 213.944 27.328C214.584 27.328 215.256 27.312 215.96 27.28C216.664 27.248 217.224 27.216 217.64 27.184ZM207.56 51.28L205.736 56.416C205.416 57.216 205.08 57.888 204.728 58.432C204.408 59.008 204.04 59.472 203.624 59.824C203.176 60.208 202.6 60.496 201.896 60.688C201.192 60.912 200.376 61.024 199.448 61.024C198.68 61.024 197.88 60.896 197.048 60.64C196.248 60.384 195.576 59.968 195.032 59.392C194.488 58.816 194.216 58.08 194.216 57.184C194.216 56.192 194.568 55.392 195.272 54.784C195.976 54.208 196.904 53.92 198.056 53.92C199.112 53.92 199.976 54.176 200.648 54.688C201.32 55.2 201.656 55.952 201.656 56.944C201.656 57.584 201.448 58.192 201.032 58.768C200.648 59.344 200.056 59.776 199.256 60.064C199.416 60.096 199.608 60.112 199.832 60.112C200.056 60.112 200.232 60.112 200.36 60.112C201.32 60.112 202.168 59.808 202.904 59.2C203.64 58.592 204.248 57.632 204.728 56.32L206.408 51.376L207.56 51.28ZM225.12 52.336C223.68 52.336 222.48 52.064 221.52 51.52C220.56 50.976 219.856 50.256 219.408 49.36C218.96 48.432 218.736 47.424 218.736 46.336C218.736 44.96 219.04 43.84 219.648 42.976C220.288 42.112 221.104 41.408 222.096 40.864C223.088 40.32 224.128 39.872 225.216 39.52C226.336 39.168 227.392 38.832 228.384 38.512C229.408 38.16 230.224 37.76 230.832 37.312C231.472 36.832 231.792 36.224 231.792 35.488V31.744C231.792 30.912 231.648 30.176 231.36 29.536C231.104 28.864 230.688 28.352 230.112 28C229.568 27.648 228.848 27.472 227.952 27.472C227.312 27.472 226.672 27.568 226.032 27.76C225.392 27.92 224.864 28.208 224.448 28.624C225.344 28.944 226.032 29.44 226.512 30.112C227.024 30.752 227.28 31.488 227.28 32.32C227.28 33.408 226.896 34.272 226.128 34.912C225.392 35.552 224.512 35.872 223.488 35.872C222.336 35.872 221.456 35.52 220.848 34.816C220.272 34.08 219.984 33.2 219.984 32.176C219.984 31.248 220.208 30.48 220.656 29.872C221.136 29.264 221.792 28.688 222.624 28.144C223.52 27.632 224.592 27.232 225.84 26.944C227.12 26.656 228.496 26.512 229.968 26.512C231.44 26.512 232.768 26.672 233.952 26.992C235.136 27.28 236.128 27.824 236.928 28.624C237.664 29.36 238.144 30.272 238.368 31.36C238.592 32.416 238.704 33.76 238.704 35.392V48.448C238.704 49.248 238.784 49.808 238.944 50.128C239.104 50.416 239.376 50.56 239.76 50.56C240.048 50.56 240.32 50.48 240.576 50.32C240.864 50.16 241.168 49.968 241.488 49.744L241.968 50.56C241.296 51.136 240.512 51.584 239.616 51.904C238.752 52.192 237.776 52.336 236.688 52.336C235.504 52.336 234.56 52.176 233.856 51.856C233.152 51.504 232.64 51.04 232.32 50.464C232.032 49.888 231.888 49.216 231.888 48.448C231.12 49.664 230.192 50.624 229.104 51.328C228.016 52 226.688 52.336 225.12 52.336ZM228.528 49.264C229.168 49.264 229.744 49.12 230.256 48.832C230.8 48.512 231.312 48 231.792 47.296V37.456C231.504 37.936 231.104 38.368 230.592 38.752C230.08 39.136 229.536 39.536 228.96 39.952C228.384 40.336 227.824 40.768 227.28 41.248C226.768 41.728 226.352 42.32 226.032 43.024C225.712 43.728 225.552 44.576 225.552 45.568C225.552 46.816 225.824 47.744 226.368 48.352C226.912 48.96 227.632 49.264 228.528 49.264ZM263.5 26.944L251.5 51.28H253.996C255.244 51.28 256.412 51.024 257.5 50.512C258.62 49.968 259.548 49.072 260.284 47.824C261.052 46.576 261.516 44.864 261.676 42.688H262.684C262.684 45.024 262.7 46.944 262.732 48.448C262.764 49.92 262.812 51.168 262.876 52.192C261.436 52.128 259.932 52.08 258.364 52.048C256.796 52.016 255.228 52 253.66 52C252.028 52 250.348 52.016 248.62 52.048C246.892 52.112 245.244 52.176 243.676 52.24L255.676 27.904H252.988C251.708 27.904 250.524 28.176 249.436 28.72C248.38 29.232 247.5 30.128 246.796 31.408C246.124 32.656 245.692 34.352 245.5 36.496H244.492C244.492 34.128 244.476 32.208 244.444 30.736C244.412 29.264 244.364 28.016 244.3 26.992C245.772 27.056 247.292 27.104 248.86 27.136C250.428 27.168 251.98 27.184 253.516 27.184C255.18 27.184 256.86 27.168 258.556 27.136C260.284 27.072 261.932 27.008 263.5 26.944Z" fill="#E5261F"/>
</g>
</svg>
