<svg width="409" height="62" viewBox="0 0 409 62" fill="none" xmlns="http://www.w3.org/2000/svg">
<g id="Group 1">
<path id="Rechtsanwalt" d="M1.632 18.016C2.432 18.048 3.504 18.08 4.848 18.112C6.224 18.144 7.584 18.16 8.928 18.16C10.464 18.16 11.952 18.144 13.392 18.112C14.832 18.08 15.856 18.064 16.464 18.064C19.44 18.064 21.904 18.4 23.856 19.072C25.84 19.712 27.312 20.656 28.272 21.904C29.264 23.152 29.76 24.656 29.76 26.416C29.76 27.504 29.536 28.608 29.088 29.728C28.64 30.816 27.872 31.84 26.784 32.8C25.728 33.728 24.272 34.48 22.416 35.056C20.56 35.6 18.224 35.872 15.408 35.872H10.8V34.912H14.928C16.816 34.912 18.24 34.56 19.2 33.856C20.192 33.12 20.864 32.16 21.216 30.976C21.6 29.76 21.792 28.416 21.792 26.944C21.792 24.416 21.344 22.464 20.448 21.088C19.552 19.68 18.016 18.976 15.84 18.976C14.592 18.976 13.776 19.248 13.392 19.792C13.04 20.336 12.864 21.44 12.864 23.104V46.912C12.864 48.064 12.944 48.928 13.104 49.504C13.296 50.08 13.648 50.464 14.16 50.656C14.672 50.848 15.44 50.976 16.464 51.04V52C15.6 51.936 14.512 51.904 13.2 51.904C11.888 51.872 10.56 51.856 9.216 51.856C7.68 51.856 6.224 51.872 4.848 51.904C3.504 51.904 2.432 51.936 1.632 52V51.04C2.656 50.976 3.424 50.848 3.936 50.656C4.448 50.464 4.784 50.08 4.944 49.504C5.136 48.928 5.232 48.064 5.232 46.912V23.104C5.232 21.92 5.136 21.056 4.944 20.512C4.784 19.936 4.432 19.552 3.888 19.36C3.376 19.136 2.624 19.008 1.632 18.976V18.016ZM10.704 35.056C12.08 35.088 13.264 35.152 14.256 35.248C15.28 35.344 16.176 35.44 16.944 35.536C17.712 35.6 18.4 35.648 19.008 35.68C21.92 35.936 24.064 36.56 25.44 37.552C26.848 38.544 27.76 40.032 28.176 42.016L29.28 46.96C29.568 48.24 29.872 49.136 30.192 49.648C30.512 50.16 30.976 50.416 31.584 50.416C32 50.384 32.336 50.288 32.592 50.128C32.88 49.936 33.184 49.664 33.504 49.312L34.176 49.888C33.312 50.88 32.384 51.584 31.392 52C30.4 52.448 29.2 52.672 27.792 52.672C26.064 52.672 24.64 52.304 23.52 51.568C22.4 50.832 21.664 49.472 21.312 47.488L20.448 42.688C20.224 41.344 19.952 40.176 19.632 39.184C19.312 38.16 18.864 37.36 18.288 36.784C17.744 36.176 16.976 35.872 15.984 35.872H10.8L10.704 35.056ZM46.7704 26.512C49.5864 26.512 51.7944 27.344 53.3944 29.008C54.9944 30.672 55.7944 33.392 55.7944 37.168H40.0024L39.9064 36.256H49.7464C49.7784 34.688 49.6824 33.248 49.4584 31.936C49.2344 30.592 48.8824 29.52 48.4024 28.72C47.9224 27.92 47.2824 27.52 46.4824 27.52C45.3624 27.52 44.4024 28.224 43.6024 29.632C42.8344 31.04 42.3704 33.376 42.2104 36.64L42.3544 36.928C42.3224 37.312 42.2904 37.712 42.2584 38.128C42.2584 38.544 42.2584 38.976 42.2584 39.424C42.2584 41.632 42.5624 43.424 43.1704 44.8C43.8104 46.176 44.6104 47.184 45.5704 47.824C46.5304 48.432 47.5064 48.736 48.4984 48.736C49.1704 48.736 49.8584 48.64 50.5624 48.448C51.2984 48.224 52.0344 47.84 52.7704 47.296C53.5064 46.72 54.1944 45.92 54.8344 44.896L55.6984 45.184C55.3144 46.4 54.7064 47.584 53.8744 48.736C53.0424 49.888 51.9864 50.832 50.7064 51.568C49.4264 52.304 47.8904 52.672 46.0984 52.672C43.9224 52.672 42.0024 52.208 40.3384 51.28C38.6744 50.352 37.3624 48.944 36.4024 47.056C35.4744 45.168 35.0104 42.768 35.0104 39.856C35.0104 36.88 35.5064 34.4 36.4984 32.416C37.5224 30.432 38.9144 28.96 40.6744 28C42.4664 27.008 44.4984 26.512 46.7704 26.512ZM71.0539 26.512C72.3019 26.512 73.4379 26.656 74.4619 26.944C75.5179 27.2 76.3819 27.536 77.0539 27.952C77.8859 28.464 78.5259 29.104 78.9739 29.872C79.4539 30.608 79.6939 31.472 79.6939 32.464C79.6939 33.584 79.3419 34.512 78.6379 35.248C77.9339 35.952 77.0219 36.304 75.9019 36.304C74.7819 36.304 73.8859 35.984 73.2139 35.344C72.5419 34.704 72.2059 33.84 72.2059 32.752C72.2059 31.728 72.5259 30.88 73.1659 30.208C73.8059 29.504 74.5419 29.04 75.3739 28.816C75.1179 28.496 74.7339 28.224 74.2219 28C73.7099 27.776 73.1339 27.664 72.4939 27.664C71.5019 27.664 70.6219 27.952 69.8539 28.528C69.1179 29.104 68.4939 29.904 67.9819 30.928C67.4699 31.952 67.0699 33.152 66.7819 34.528C66.5259 35.904 66.3979 37.408 66.3979 39.04C66.3979 41.504 66.7019 43.44 67.3099 44.848C67.9499 46.256 68.7499 47.248 69.7099 47.824C70.7019 48.4 71.7259 48.688 72.7819 48.688C73.3899 48.688 74.0459 48.592 74.7499 48.4C75.4859 48.208 76.2219 47.824 76.9579 47.248C77.7259 46.672 78.4299 45.856 79.0699 44.8L79.8859 45.088C79.5339 46.272 78.9579 47.456 78.1579 48.64C77.3579 49.824 76.3179 50.8 75.0379 51.568C73.7579 52.304 72.1899 52.672 70.3339 52.672C68.2539 52.672 66.3659 52.224 64.6699 51.328C63.0059 50.4 61.6619 48.992 60.6379 47.104C59.6459 45.184 59.1499 42.72 59.1499 39.712C59.1499 36.832 59.6619 34.416 60.6859 32.464C61.7419 30.48 63.1659 28.992 64.9579 28C66.7499 27.008 68.7819 26.512 71.0539 26.512ZM92.1304 14.464V30.976C92.9304 29.312 94.0024 28.16 95.3464 27.52C96.7224 26.848 98.2584 26.512 99.9544 26.512C101.33 26.512 102.434 26.688 103.266 27.04C104.098 27.36 104.754 27.808 105.234 28.384C105.778 28.992 106.162 29.776 106.386 30.736C106.642 31.696 106.77 32.992 106.77 34.624V47.536C106.77 48.88 106.994 49.792 107.442 50.272C107.922 50.752 108.722 50.992 109.842 50.992V52C109.234 51.968 108.306 51.936 107.058 51.904C105.842 51.84 104.658 51.808 103.506 51.808C102.258 51.808 101.042 51.84 99.8584 51.904C98.7064 51.936 97.8424 51.968 97.2664 52V50.992C98.2264 50.992 98.8984 50.752 99.2824 50.272C99.6664 49.792 99.8584 48.88 99.8584 47.536V32.608C99.8584 31.808 99.7784 31.12 99.6184 30.544C99.4584 29.936 99.1544 29.472 98.7064 29.152C98.2904 28.8 97.6824 28.624 96.8824 28.624C96.0184 28.624 95.2184 28.864 94.4824 29.344C93.7784 29.792 93.2024 30.432 92.7544 31.264C92.3384 32.096 92.1304 33.056 92.1304 34.144V47.536C92.1304 48.88 92.3224 49.792 92.7064 50.272C93.0904 50.752 93.7624 50.992 94.7224 50.992V52C94.1464 51.968 93.2984 51.936 92.1784 51.904C91.0584 51.84 89.9224 51.808 88.7704 51.808C87.5224 51.808 86.2584 51.84 84.9784 51.904C83.7304 51.936 82.7864 51.968 82.1464 52V50.992C83.2664 50.992 84.0504 50.752 84.4984 50.272C84.9784 49.792 85.2184 48.88 85.2184 47.536V20.224C85.2184 18.784 84.9944 17.728 84.5464 17.056C84.1304 16.352 83.3304 16 82.1464 16V14.992C83.1704 15.088 84.1624 15.136 85.1224 15.136C86.4344 15.136 87.6824 15.088 88.8664 14.992C90.0504 14.864 91.1384 14.688 92.1304 14.464ZM121.334 19.312V27.184H126.998V28.144H121.334V47.536C121.334 48.496 121.51 49.184 121.862 49.6C122.214 49.984 122.742 50.176 123.446 50.176C124.022 50.176 124.598 49.968 125.174 49.552C125.75 49.104 126.262 48.352 126.71 47.296L127.526 47.728C127.014 49.168 126.23 50.352 125.174 51.28C124.15 52.208 122.742 52.672 120.95 52.672C119.894 52.672 118.966 52.528 118.166 52.24C117.366 51.984 116.694 51.584 116.15 51.04C115.446 50.336 114.982 49.472 114.758 48.448C114.534 47.392 114.422 46.032 114.422 44.368V28.144H110.389V27.184H114.422V20.848C115.766 20.848 116.998 20.736 118.118 20.512C119.27 20.256 120.342 19.856 121.334 19.312ZM137.969 26.512C139.313 26.512 140.481 26.688 141.473 27.04C142.497 27.36 143.233 27.68 143.681 28C144.769 28.736 145.441 28.256 145.697 26.56H146.705C146.641 27.456 146.593 28.56 146.561 29.872C146.529 31.152 146.513 32.864 146.513 35.008H145.505C145.345 33.824 145.041 32.656 144.593 31.504C144.145 30.352 143.489 29.408 142.625 28.672C141.793 27.936 140.705 27.568 139.361 27.568C138.433 27.568 137.649 27.84 137.009 28.384C136.369 28.896 136.049 29.648 136.049 30.64C136.049 31.6 136.337 32.448 136.913 33.184C137.489 33.888 138.225 34.576 139.121 35.248C140.049 35.888 141.009 36.576 142.001 37.312C143.057 38.112 144.017 38.912 144.881 39.712C145.745 40.48 146.433 41.328 146.945 42.256C147.457 43.184 147.713 44.288 147.713 45.568C147.713 47.008 147.297 48.272 146.465 49.36C145.633 50.416 144.529 51.232 143.153 51.808C141.809 52.384 140.305 52.672 138.641 52.672C137.681 52.672 136.817 52.576 136.049 52.384C135.313 52.192 134.673 51.952 134.129 51.664C133.713 51.472 133.313 51.296 132.929 51.136C132.577 50.944 132.241 50.784 131.921 50.656C131.601 50.56 131.313 50.672 131.057 50.992C130.833 51.312 130.657 51.76 130.529 52.336H129.521C129.585 51.312 129.633 50.064 129.665 48.592C129.697 47.12 129.713 45.168 129.713 42.736H130.721C130.913 44.464 131.265 46 131.777 47.344C132.289 48.656 132.977 49.696 133.841 50.464C134.737 51.2 135.857 51.568 137.201 51.568C137.745 51.568 138.273 51.456 138.785 51.232C139.297 51.008 139.713 50.64 140.033 50.128C140.385 49.616 140.561 48.96 140.561 48.16C140.561 46.752 140.097 45.584 139.169 44.656C138.273 43.728 137.121 42.72 135.713 41.632C134.689 40.8 133.713 39.984 132.785 39.184C131.889 38.352 131.153 37.456 130.577 36.496C130.001 35.504 129.713 34.384 129.713 33.136C129.713 31.696 130.097 30.48 130.865 29.488C131.633 28.496 132.641 27.76 133.889 27.28C135.169 26.768 136.529 26.512 137.969 26.512ZM157.26 52.336C155.82 52.336 154.62 52.064 153.66 51.52C152.7 50.976 151.996 50.256 151.548 49.36C151.1 48.432 150.876 47.424 150.876 46.336C150.876 44.96 151.18 43.84 151.788 42.976C152.428 42.112 153.244 41.408 154.236 40.864C155.228 40.32 156.268 39.872 157.356 39.52C158.476 39.168 159.532 38.832 160.524 38.512C161.548 38.16 162.364 37.76 162.972 37.312C163.612 36.832 163.932 36.224 163.932 35.488V31.744C163.932 30.912 163.788 30.176 163.5 29.536C163.244 28.864 162.828 28.352 162.252 28C161.708 27.648 160.988 27.472 160.092 27.472C159.452 27.472 158.812 27.568 158.172 27.76C157.532 27.92 157.004 28.208 156.588 28.624C157.484 28.944 158.172 29.44 158.652 30.112C159.164 30.752 159.42 31.488 159.42 32.32C159.42 33.408 159.036 34.272 158.268 34.912C157.532 35.552 156.652 35.872 155.628 35.872C154.476 35.872 153.596 35.52 152.988 34.816C152.412 34.08 152.124 33.2 152.124 32.176C152.124 31.248 152.348 30.48 152.796 29.872C153.276 29.264 153.932 28.688 154.764 28.144C155.66 27.632 156.732 27.232 157.98 26.944C159.26 26.656 160.636 26.512 162.108 26.512C163.58 26.512 164.908 26.672 166.092 26.992C167.276 27.28 168.268 27.824 169.068 28.624C169.804 29.36 170.284 30.272 170.508 31.36C170.732 32.416 170.844 33.76 170.844 35.392V48.448C170.844 49.248 170.924 49.808 171.084 50.128C171.244 50.416 171.516 50.56 171.9 50.56C172.188 50.56 172.46 50.48 172.716 50.32C173.004 50.16 173.308 49.968 173.628 49.744L174.108 50.56C173.436 51.136 172.652 51.584 171.756 51.904C170.892 52.192 169.916 52.336 168.828 52.336C167.644 52.336 166.7 52.176 165.996 51.856C165.292 51.504 164.78 51.04 164.46 50.464C164.172 49.888 164.028 49.216 164.028 48.448C163.26 49.664 162.332 50.624 161.244 51.328C160.156 52 158.828 52.336 157.26 52.336ZM160.668 49.264C161.308 49.264 161.884 49.12 162.396 48.832C162.94 48.512 163.452 48 163.932 47.296V37.456C163.644 37.936 163.244 38.368 162.732 38.752C162.22 39.136 161.676 39.536 161.1 39.952C160.524 40.336 159.964 40.768 159.42 41.248C158.908 41.728 158.492 42.32 158.172 43.024C157.852 43.728 157.692 44.576 157.692 45.568C157.692 46.816 157.964 47.744 158.508 48.352C159.052 48.96 159.772 49.264 160.668 49.264ZM193.336 26.512C194.68 26.512 195.768 26.688 196.6 27.04C197.464 27.36 198.136 27.808 198.616 28.384C199.128 28.992 199.496 29.776 199.72 30.736C199.976 31.696 200.104 32.992 200.104 34.624V47.536C200.104 48.88 200.328 49.792 200.776 50.272C201.256 50.752 202.056 50.992 203.176 50.992V52C202.568 51.968 201.656 51.936 200.44 51.904C199.224 51.84 198.024 51.808 196.84 51.808C195.624 51.808 194.424 51.84 193.24 51.904C192.088 51.936 191.208 51.968 190.6 52V50.992C191.56 50.992 192.232 50.752 192.616 50.272C193 49.792 193.192 48.88 193.192 47.536V32.608C193.192 31.808 193.112 31.12 192.952 30.544C192.792 29.936 192.504 29.472 192.088 29.152C191.672 28.8 191.048 28.624 190.216 28.624C189.352 28.624 188.552 28.864 187.816 29.344C187.112 29.824 186.536 30.496 186.088 31.36C185.672 32.192 185.464 33.136 185.464 34.192V47.536C185.464 48.88 185.656 49.792 186.04 50.272C186.456 50.752 187.128 50.992 188.056 50.992V52C187.48 51.968 186.632 51.936 185.512 51.904C184.424 51.84 183.288 51.808 182.104 51.808C180.888 51.808 179.64 51.84 178.36 51.904C177.08 51.936 176.12 51.968 175.48 52V50.992C176.6 50.992 177.384 50.752 177.832 50.272C178.312 49.792 178.552 48.88 178.552 47.536V32.416C178.552 30.976 178.328 29.92 177.88 29.248C177.464 28.544 176.664 28.192 175.48 28.192V27.184C176.504 27.28 177.496 27.328 178.456 27.328C179.8 27.328 181.048 27.28 182.2 27.184C183.384 27.056 184.472 26.88 185.464 26.656V30.976C186.264 29.344 187.352 28.192 188.728 27.52C190.104 26.848 191.64 26.512 193.336 26.512ZM216.017 27.184V28.192C215.313 28.192 214.689 28.24 214.145 28.336C213.633 28.4 213.281 28.624 213.089 29.008C212.929 29.392 212.993 30.016 213.281 30.88L217.841 45.136L217.217 45.808L222.833 27.136L223.793 27.568L216.449 52.096C215.937 52.064 215.425 52.048 214.913 52.048C214.401 52.048 213.873 52.064 213.329 52.096L205.745 30.88C205.297 29.6 204.801 28.832 204.257 28.576C203.745 28.32 203.313 28.192 202.961 28.192V27.184C203.985 27.28 205.041 27.36 206.129 27.424C207.249 27.456 208.465 27.472 209.777 27.472C210.769 27.472 211.809 27.44 212.897 27.376C214.017 27.312 215.057 27.248 216.017 27.184ZM241.073 27.184V28.144C240.465 28.304 239.889 28.672 239.345 29.248C238.801 29.824 238.289 30.832 237.809 32.272L231.425 52.096C230.913 52.064 230.385 52.048 229.841 52.048C229.329 52.048 228.817 52.064 228.305 52.096L221.537 33.616L222.833 27.136C223.409 27.168 223.985 27.184 224.561 27.184C225.169 27.152 225.761 27.136 226.337 27.136L232.913 46.528L232.385 46L235.601 35.824C236.145 34.064 236.353 32.64 236.225 31.552C236.097 30.464 235.713 29.648 235.073 29.104C234.433 28.56 233.569 28.24 232.481 28.144V27.184C232.993 27.216 233.537 27.248 234.113 27.28C234.721 27.28 235.313 27.296 235.889 27.328C236.497 27.328 237.009 27.328 237.425 27.328C238.065 27.328 238.721 27.312 239.393 27.28C240.097 27.248 240.657 27.216 241.073 27.184ZM248.292 52.336C246.852 52.336 245.652 52.064 244.692 51.52C243.732 50.976 243.028 50.256 242.58 49.36C242.132 48.432 241.908 47.424 241.908 46.336C241.908 44.96 242.212 43.84 242.82 42.976C243.46 42.112 244.276 41.408 245.268 40.864C246.26 40.32 247.3 39.872 248.388 39.52C249.508 39.168 250.564 38.832 251.556 38.512C252.58 38.16 253.396 37.76 254.004 37.312C254.644 36.832 254.964 36.224 254.964 35.488V31.744C254.964 30.912 254.82 30.176 254.532 29.536C254.276 28.864 253.86 28.352 253.284 28C252.74 27.648 252.02 27.472 251.124 27.472C250.484 27.472 249.844 27.568 249.204 27.76C248.564 27.92 248.036 28.208 247.62 28.624C248.516 28.944 249.204 29.44 249.684 30.112C250.196 30.752 250.452 31.488 250.452 32.32C250.452 33.408 250.068 34.272 249.3 34.912C248.564 35.552 247.684 35.872 246.66 35.872C245.508 35.872 244.628 35.52 244.02 34.816C243.444 34.08 243.156 33.2 243.156 32.176C243.156 31.248 243.38 30.48 243.828 29.872C244.308 29.264 244.964 28.688 245.796 28.144C246.692 27.632 247.764 27.232 249.012 26.944C250.292 26.656 251.668 26.512 253.14 26.512C254.612 26.512 255.94 26.672 257.124 26.992C258.308 27.28 259.3 27.824 260.1 28.624C260.836 29.36 261.316 30.272 261.54 31.36C261.764 32.416 261.876 33.76 261.876 35.392V48.448C261.876 49.248 261.956 49.808 262.116 50.128C262.276 50.416 262.548 50.56 262.932 50.56C263.22 50.56 263.492 50.48 263.748 50.32C264.036 50.16 264.34 49.968 264.66 49.744L265.14 50.56C264.468 51.136 263.684 51.584 262.788 51.904C261.924 52.192 260.948 52.336 259.86 52.336C258.676 52.336 257.732 52.176 257.028 51.856C256.324 51.504 255.812 51.04 255.492 50.464C255.204 49.888 255.06 49.216 255.06 48.448C254.292 49.664 253.364 50.624 252.276 51.328C251.188 52 249.86 52.336 248.292 52.336ZM251.7 49.264C252.34 49.264 252.916 49.12 253.428 48.832C253.972 48.512 254.484 48 254.964 47.296V37.456C254.676 37.936 254.276 38.368 253.764 38.752C253.252 39.136 252.708 39.536 252.132 39.952C251.556 40.336 250.996 40.768 250.452 41.248C249.94 41.728 249.524 42.32 249.204 43.024C248.884 43.728 248.724 44.576 248.724 45.568C248.724 46.816 248.996 47.744 249.54 48.352C250.084 48.96 250.804 49.264 251.7 49.264ZM276.303 14.416V47.536C276.303 48.88 276.527 49.792 276.975 50.272C277.455 50.752 278.255 50.992 279.375 50.992V52C278.767 51.968 277.855 51.936 276.639 51.904C275.423 51.84 274.191 51.808 272.943 51.808C271.695 51.808 270.431 51.84 269.151 51.904C267.903 51.936 266.959 51.968 266.319 52V50.992C267.439 50.992 268.223 50.752 268.671 50.272C269.151 49.792 269.391 48.88 269.391 47.536V20.176C269.391 18.736 269.167 17.68 268.719 17.008C268.303 16.304 267.503 15.952 266.319 15.952V14.944C267.343 15.04 268.335 15.088 269.295 15.088C270.607 15.088 271.855 15.04 273.039 14.944C274.223 14.816 275.311 14.64 276.303 14.416ZM291.162 19.312V27.184H296.826V28.144H291.162V47.536C291.162 48.496 291.338 49.184 291.69 49.6C292.042 49.984 292.57 50.176 293.274 50.176C293.85 50.176 294.426 49.968 295.002 49.552C295.578 49.104 296.09 48.352 296.538 47.296L297.354 47.728C296.842 49.168 296.058 50.352 295.002 51.28C293.978 52.208 292.57 52.672 290.778 52.672C289.722 52.672 288.794 52.528 287.994 52.24C287.194 51.984 286.522 51.584 285.978 51.04C285.274 50.336 284.81 49.472 284.586 48.448C284.362 47.392 284.25 46.032 284.25 44.368V28.144H280.218V27.184H284.25V20.848C285.594 20.848 286.826 20.736 287.946 20.512C289.098 20.256 290.17 19.856 291.162 19.312Z" fill="#2F2F41"/>
<path id="Ayaz" d="M322.664 17.92L334.328 47.968C334.776 49.12 335.272 49.92 335.816 50.368C336.392 50.784 336.904 51.008 337.352 51.04V52C336.392 51.936 335.256 51.904 333.944 51.904C332.664 51.872 331.368 51.856 330.056 51.856C328.584 51.856 327.192 51.872 325.88 51.904C324.568 51.904 323.528 51.936 322.76 52V51.04C324.392 50.976 325.416 50.704 325.832 50.224C326.28 49.712 326.184 48.64 325.544 47.008L317.384 24.688L318.248 23.44L310.952 42.448C310.248 44.208 309.816 45.648 309.656 46.768C309.528 47.888 309.608 48.752 309.896 49.36C310.216 49.968 310.712 50.4 311.384 50.656C312.088 50.88 312.92 51.008 313.88 51.04V52C312.824 51.936 311.816 51.904 310.856 51.904C309.896 51.872 308.92 51.856 307.928 51.856C307.224 51.856 306.552 51.872 305.912 51.904C305.304 51.904 304.76 51.936 304.28 52V51.04C304.952 50.912 305.64 50.48 306.344 49.744C307.048 49.008 307.736 47.76 308.408 46L319.352 17.92C319.864 17.952 320.408 17.968 320.984 17.968C321.592 17.968 322.152 17.952 322.664 17.92ZM326.024 38.176V39.136H311.72L312.2 38.176H326.024ZM361.64 27.184V28.144C361.032 28.304 360.456 28.688 359.912 29.296C359.368 29.872 358.84 30.864 358.328 32.272L351.56 51.28L349.784 54.64L339.32 30.88C338.776 29.632 338.232 28.88 337.688 28.624C337.176 28.336 336.728 28.192 336.344 28.192V27.184C337.4 27.28 338.488 27.36 339.608 27.424C340.76 27.456 341.864 27.472 342.92 27.472C344.232 27.472 345.432 27.44 346.52 27.376C347.608 27.312 348.632 27.248 349.592 27.184V28.192C348.952 28.192 348.344 28.24 347.768 28.336C347.224 28.4 346.84 28.624 346.616 29.008C346.424 29.36 346.52 29.984 346.904 30.88L352.952 45.472L352.52 45.76L356.072 35.824C356.68 34.096 356.936 32.688 356.84 31.6C356.744 30.48 356.392 29.648 355.784 29.104C355.176 28.528 354.344 28.208 353.288 28.144V27.184C353.8 27.216 354.328 27.248 354.872 27.28C355.416 27.28 355.96 27.296 356.504 27.328C357.048 27.328 357.528 27.328 357.944 27.328C358.584 27.328 359.256 27.312 359.96 27.28C360.664 27.248 361.224 27.216 361.64 27.184ZM351.56 51.28L349.736 56.416C349.416 57.216 349.08 57.888 348.728 58.432C348.408 59.008 348.04 59.472 347.624 59.824C347.176 60.208 346.6 60.496 345.896 60.688C345.192 60.912 344.376 61.024 343.448 61.024C342.68 61.024 341.88 60.896 341.048 60.64C340.248 60.384 339.576 59.968 339.032 59.392C338.488 58.816 338.216 58.08 338.216 57.184C338.216 56.192 338.568 55.392 339.272 54.784C339.976 54.208 340.904 53.92 342.056 53.92C343.112 53.92 343.976 54.176 344.648 54.688C345.32 55.2 345.656 55.952 345.656 56.944C345.656 57.584 345.448 58.192 345.032 58.768C344.648 59.344 344.056 59.776 343.256 60.064C343.416 60.096 343.608 60.112 343.832 60.112C344.056 60.112 344.232 60.112 344.36 60.112C345.32 60.112 346.168 59.808 346.904 59.2C347.64 58.592 348.248 57.632 348.728 56.32L350.408 51.376L351.56 51.28ZM369.12 52.336C367.68 52.336 366.48 52.064 365.52 51.52C364.56 50.976 363.856 50.256 363.408 49.36C362.96 48.432 362.736 47.424 362.736 46.336C362.736 44.96 363.04 43.84 363.648 42.976C364.288 42.112 365.104 41.408 366.096 40.864C367.088 40.32 368.128 39.872 369.216 39.52C370.336 39.168 371.392 38.832 372.384 38.512C373.408 38.16 374.224 37.76 374.832 37.312C375.472 36.832 375.792 36.224 375.792 35.488V31.744C375.792 30.912 375.648 30.176 375.36 29.536C375.104 28.864 374.688 28.352 374.112 28C373.568 27.648 372.848 27.472 371.952 27.472C371.312 27.472 370.672 27.568 370.032 27.76C369.392 27.92 368.864 28.208 368.448 28.624C369.344 28.944 370.032 29.44 370.512 30.112C371.024 30.752 371.28 31.488 371.28 32.32C371.28 33.408 370.896 34.272 370.128 34.912C369.392 35.552 368.512 35.872 367.488 35.872C366.336 35.872 365.456 35.52 364.848 34.816C364.272 34.08 363.984 33.2 363.984 32.176C363.984 31.248 364.208 30.48 364.656 29.872C365.136 29.264 365.792 28.688 366.624 28.144C367.52 27.632 368.592 27.232 369.84 26.944C371.12 26.656 372.496 26.512 373.968 26.512C375.44 26.512 376.768 26.672 377.952 26.992C379.136 27.28 380.128 27.824 380.928 28.624C381.664 29.36 382.144 30.272 382.368 31.36C382.592 32.416 382.704 33.76 382.704 35.392V48.448C382.704 49.248 382.784 49.808 382.944 50.128C383.104 50.416 383.376 50.56 383.76 50.56C384.048 50.56 384.32 50.48 384.576 50.32C384.864 50.16 385.168 49.968 385.488 49.744L385.968 50.56C385.296 51.136 384.512 51.584 383.616 51.904C382.752 52.192 381.776 52.336 380.688 52.336C379.504 52.336 378.56 52.176 377.856 51.856C377.152 51.504 376.64 51.04 376.32 50.464C376.032 49.888 375.888 49.216 375.888 48.448C375.12 49.664 374.192 50.624 373.104 51.328C372.016 52 370.688 52.336 369.12 52.336ZM372.528 49.264C373.168 49.264 373.744 49.12 374.256 48.832C374.8 48.512 375.312 48 375.792 47.296V37.456C375.504 37.936 375.104 38.368 374.592 38.752C374.08 39.136 373.536 39.536 372.96 39.952C372.384 40.336 371.824 40.768 371.28 41.248C370.768 41.728 370.352 42.32 370.032 43.024C369.712 43.728 369.552 44.576 369.552 45.568C369.552 46.816 369.824 47.744 370.368 48.352C370.912 48.96 371.632 49.264 372.528 49.264ZM407.5 26.944L395.5 51.28H397.996C399.244 51.28 400.412 51.024 401.5 50.512C402.62 49.968 403.548 49.072 404.284 47.824C405.052 46.576 405.516 44.864 405.676 42.688H406.684C406.684 45.024 406.7 46.944 406.732 48.448C406.764 49.92 406.812 51.168 406.876 52.192C405.436 52.128 403.932 52.08 402.364 52.048C400.796 52.016 399.228 52 397.66 52C396.028 52 394.348 52.016 392.62 52.048C390.892 52.112 389.244 52.176 387.676 52.24L399.676 27.904H396.988C395.708 27.904 394.524 28.176 393.436 28.72C392.38 29.232 391.5 30.128 390.796 31.408C390.124 32.656 389.692 34.352 389.5 36.496H388.492C388.492 34.128 388.476 32.208 388.444 30.736C388.412 29.264 388.364 28.016 388.3 26.992C389.772 27.056 391.292 27.104 392.86 27.136C394.428 27.168 395.98 27.184 397.516 27.184C399.18 27.184 400.86 27.168 402.556 27.136C404.284 27.072 405.932 27.008 407.5 26.944Z" fill="#E5261F"/>
</g>
</svg>
