<svg xmlns="http://www.w3.org/2000/svg" xmlns:xlink="http://www.w3.org/1999/xlink" width="395" zoomAndPan="magnify" viewBox="0 0 296.25 30.000001" height="40" preserveAspectRatio="xMidYMid meet" version="1.0"><defs><g/></defs><g fill="#2f2f41" fill-opacity="1"><g transform="translate(4.415318, 23.225808)"><g><path d="M 0.796875 -16.4375 C 1.179688 -16.425781 1.703125 -16.410156 2.359375 -16.390625 C 3.015625 -16.378906 3.664062 -16.375 4.3125 -16.375 C 5.0625 -16.375 5.78125 -16.378906 6.46875 -16.390625 C 7.164062 -16.410156 7.664062 -16.421875 7.96875 -16.421875 C 9.40625 -16.421875 10.597656 -16.257812 11.546875 -15.9375 C 12.503906 -15.625 13.21875 -15.164062 13.6875 -14.5625 C 14.15625 -13.957031 14.390625 -13.226562 14.390625 -12.375 C 14.390625 -11.851562 14.28125 -11.320312 14.0625 -10.78125 C 13.851562 -10.25 13.488281 -9.753906 12.96875 -9.296875 C 12.445312 -8.835938 11.738281 -8.472656 10.84375 -8.203125 C 9.945312 -7.929688 8.816406 -7.796875 7.453125 -7.796875 L 5.21875 -7.796875 L 5.21875 -8.265625 L 7.21875 -8.265625 C 8.132812 -8.265625 8.828125 -8.4375 9.296875 -8.78125 C 9.765625 -9.132812 10.085938 -9.597656 10.265625 -10.171875 C 10.453125 -10.753906 10.546875 -11.40625 10.546875 -12.125 C 10.546875 -13.34375 10.328125 -14.285156 9.890625 -14.953125 C 9.453125 -15.628906 8.707031 -15.96875 7.65625 -15.96875 C 7.050781 -15.96875 6.660156 -15.835938 6.484375 -15.578125 C 6.304688 -15.316406 6.21875 -14.785156 6.21875 -13.984375 L 6.21875 -2.46875 C 6.21875 -1.90625 6.257812 -1.484375 6.34375 -1.203125 C 6.4375 -0.929688 6.601562 -0.75 6.84375 -0.65625 C 7.09375 -0.5625 7.46875 -0.5 7.96875 -0.46875 L 7.96875 0 C 7.550781 -0.03125 7.023438 -0.046875 6.390625 -0.046875 C 5.753906 -0.0546875 5.109375 -0.0625 4.453125 -0.0625 C 3.710938 -0.0625 3.015625 -0.0546875 2.359375 -0.046875 C 1.703125 -0.046875 1.179688 -0.03125 0.796875 0 L 0.796875 -0.46875 C 1.285156 -0.5 1.65625 -0.5625 1.90625 -0.65625 C 2.15625 -0.75 2.320312 -0.929688 2.40625 -1.203125 C 2.488281 -1.484375 2.53125 -1.90625 2.53125 -2.46875 L 2.53125 -13.984375 C 2.53125 -14.554688 2.488281 -14.976562 2.40625 -15.25 C 2.320312 -15.519531 2.148438 -15.703125 1.890625 -15.796875 C 1.640625 -15.898438 1.273438 -15.957031 0.796875 -15.96875 Z M 5.171875 -8.203125 C 5.835938 -8.179688 6.414062 -8.144531 6.90625 -8.09375 C 7.394531 -8.050781 7.820312 -8.007812 8.1875 -7.96875 C 8.5625 -7.9375 8.894531 -7.910156 9.1875 -7.890625 C 10.601562 -7.765625 11.644531 -7.460938 12.3125 -6.984375 C 12.988281 -6.503906 13.425781 -5.785156 13.625 -4.828125 L 14.15625 -2.4375 C 14.300781 -1.820312 14.453125 -1.390625 14.609375 -1.140625 C 14.765625 -0.890625 14.988281 -0.765625 15.28125 -0.765625 C 15.476562 -0.785156 15.640625 -0.835938 15.765625 -0.921875 C 15.898438 -1.003906 16.046875 -1.128906 16.203125 -1.296875 L 16.53125 -1.015625 C 16.113281 -0.535156 15.664062 -0.191406 15.1875 0.015625 C 14.707031 0.222656 14.125 0.328125 13.4375 0.328125 C 12.601562 0.328125 11.914062 0.148438 11.375 -0.203125 C 10.832031 -0.566406 10.476562 -1.226562 10.3125 -2.1875 L 9.890625 -4.5 C 9.785156 -5.15625 9.65625 -5.722656 9.5 -6.203125 C 9.34375 -6.691406 9.128906 -7.078125 8.859375 -7.359375 C 8.585938 -7.648438 8.210938 -7.796875 7.734375 -7.796875 L 5.21875 -7.796875 Z M 5.171875 -8.203125 "/></g></g></g><g fill="#2f2f41" fill-opacity="1"><g transform="translate(20.487607, 23.225808)"><g><path d="M 6.546875 -12.328125 C 7.910156 -12.328125 8.976562 -11.925781 9.75 -11.125 C 10.519531 -10.320312 10.90625 -9.003906 10.90625 -7.171875 L 3.28125 -7.171875 L 3.234375 -7.609375 L 7.984375 -7.609375 C 8.003906 -8.367188 7.957031 -9.070312 7.84375 -9.71875 C 7.738281 -10.363281 7.566406 -10.878906 7.328125 -11.265625 C 7.097656 -11.648438 6.789062 -11.84375 6.40625 -11.84375 C 5.863281 -11.84375 5.398438 -11.5 5.015625 -10.8125 C 4.640625 -10.132812 4.414062 -9.007812 4.34375 -7.4375 L 4.40625 -7.296875 C 4.394531 -7.109375 4.382812 -6.910156 4.375 -6.703125 C 4.363281 -6.503906 4.359375 -6.296875 4.359375 -6.078125 C 4.359375 -5.015625 4.507812 -4.148438 4.8125 -3.484375 C 5.113281 -2.816406 5.492188 -2.332031 5.953125 -2.03125 C 6.421875 -1.726562 6.898438 -1.578125 7.390625 -1.578125 C 7.710938 -1.578125 8.046875 -1.625 8.390625 -1.71875 C 8.742188 -1.820312 9.097656 -2.007812 9.453125 -2.28125 C 9.804688 -2.550781 10.140625 -2.9375 10.453125 -3.4375 L 10.859375 -3.296875 C 10.679688 -2.710938 10.390625 -2.140625 9.984375 -1.578125 C 9.578125 -1.023438 9.0625 -0.566406 8.4375 -0.203125 C 7.820312 0.148438 7.082031 0.328125 6.21875 0.328125 C 5.164062 0.328125 4.238281 0.101562 3.4375 -0.34375 C 2.632812 -0.789062 2.003906 -1.472656 1.546875 -2.390625 C 1.085938 -3.304688 0.859375 -4.46875 0.859375 -5.875 C 0.859375 -7.3125 1.101562 -8.507812 1.59375 -9.46875 C 2.082031 -10.425781 2.753906 -11.140625 3.609375 -11.609375 C 4.472656 -12.085938 5.453125 -12.328125 6.546875 -12.328125 Z M 6.546875 -12.328125 "/></g></g></g><g fill="#2f2f41" fill-opacity="1"><g transform="translate(32.19344, 23.225808)"><g><path d="M 6.59375 -12.328125 C 7.195312 -12.328125 7.75 -12.257812 8.25 -12.125 C 8.757812 -12 9.175781 -11.832031 9.5 -11.625 C 9.894531 -11.382812 10.207031 -11.082031 10.4375 -10.71875 C 10.664062 -10.351562 10.78125 -9.929688 10.78125 -9.453125 C 10.78125 -8.910156 10.609375 -8.460938 10.265625 -8.109375 C 9.921875 -7.765625 9.476562 -7.59375 8.9375 -7.59375 C 8.394531 -7.59375 7.960938 -7.742188 7.640625 -8.046875 C 7.316406 -8.359375 7.15625 -8.78125 7.15625 -9.3125 C 7.15625 -9.800781 7.304688 -10.210938 7.609375 -10.546875 C 7.921875 -10.878906 8.28125 -11.101562 8.6875 -11.21875 C 8.5625 -11.375 8.375 -11.503906 8.125 -11.609375 C 7.875 -11.710938 7.597656 -11.765625 7.296875 -11.765625 C 6.816406 -11.765625 6.394531 -11.625 6.03125 -11.34375 C 5.664062 -11.070312 5.359375 -10.6875 5.109375 -10.1875 C 4.859375 -9.695312 4.664062 -9.117188 4.53125 -8.453125 C 4.40625 -7.785156 4.34375 -7.054688 4.34375 -6.265625 C 4.34375 -5.078125 4.492188 -4.140625 4.796875 -3.453125 C 5.097656 -2.773438 5.484375 -2.296875 5.953125 -2.015625 C 6.421875 -1.742188 6.914062 -1.609375 7.4375 -1.609375 C 7.726562 -1.609375 8.046875 -1.648438 8.390625 -1.734375 C 8.742188 -1.828125 9.097656 -2.015625 9.453125 -2.296875 C 9.816406 -2.578125 10.15625 -2.972656 10.46875 -3.484375 L 10.859375 -3.34375 C 10.691406 -2.769531 10.414062 -2.195312 10.03125 -1.625 C 9.644531 -1.050781 9.140625 -0.582031 8.515625 -0.21875 C 7.898438 0.144531 7.144531 0.328125 6.25 0.328125 C 5.238281 0.328125 4.328125 0.109375 3.515625 -0.328125 C 2.703125 -0.773438 2.050781 -1.457031 1.5625 -2.375 C 1.070312 -3.300781 0.828125 -4.488281 0.828125 -5.9375 C 0.828125 -7.332031 1.078125 -8.503906 1.578125 -9.453125 C 2.085938 -10.410156 2.773438 -11.128906 3.640625 -11.609375 C 4.515625 -12.085938 5.5 -12.328125 6.59375 -12.328125 Z M 6.59375 -12.328125 "/></g></g></g><g fill="#2f2f41" fill-opacity="1"><g transform="translate(43.713469, 23.225808)"><g><path d="M 5.265625 -18.15625 L 5.265625 -10.171875 C 5.648438 -10.972656 6.171875 -11.53125 6.828125 -11.84375 C 7.492188 -12.164062 8.238281 -12.328125 9.0625 -12.328125 C 9.71875 -12.328125 10.25 -12.242188 10.65625 -12.078125 C 11.0625 -11.921875 11.378906 -11.703125 11.609375 -11.421875 C 11.867188 -11.128906 12.054688 -10.75 12.171875 -10.28125 C 12.296875 -9.820312 12.359375 -9.195312 12.359375 -8.40625 L 12.359375 -2.15625 C 12.359375 -1.507812 12.46875 -1.066406 12.6875 -0.828125 C 12.914062 -0.597656 13.300781 -0.484375 13.84375 -0.484375 L 13.84375 0 C 13.539062 -0.0078125 13.09375 -0.0234375 12.5 -0.046875 C 11.90625 -0.078125 11.332031 -0.09375 10.78125 -0.09375 C 10.175781 -0.09375 9.585938 -0.078125 9.015625 -0.046875 C 8.453125 -0.0234375 8.03125 -0.0078125 7.75 0 L 7.75 -0.484375 C 8.21875 -0.484375 8.546875 -0.597656 8.734375 -0.828125 C 8.921875 -1.066406 9.015625 -1.507812 9.015625 -2.15625 L 9.015625 -9.375 C 9.015625 -9.757812 8.972656 -10.09375 8.890625 -10.375 C 8.816406 -10.664062 8.675781 -10.894531 8.46875 -11.0625 C 8.257812 -11.226562 7.957031 -11.3125 7.5625 -11.3125 C 7.144531 -11.3125 6.757812 -11.195312 6.40625 -10.96875 C 6.0625 -10.75 5.785156 -10.4375 5.578125 -10.03125 C 5.367188 -9.625 5.265625 -9.160156 5.265625 -8.640625 L 5.265625 -2.15625 C 5.265625 -1.507812 5.359375 -1.066406 5.546875 -0.828125 C 5.734375 -0.597656 6.0625 -0.484375 6.53125 -0.484375 L 6.53125 0 C 6.25 -0.0078125 5.835938 -0.0234375 5.296875 -0.046875 C 4.753906 -0.078125 4.203125 -0.09375 3.640625 -0.09375 C 3.035156 -0.09375 2.425781 -0.078125 1.8125 -0.046875 C 1.207031 -0.0234375 0.75 -0.0078125 0.4375 0 L 0.4375 -0.484375 C 0.976562 -0.484375 1.359375 -0.597656 1.578125 -0.828125 C 1.804688 -1.066406 1.921875 -1.507812 1.921875 -2.15625 L 1.921875 -15.375 C 1.921875 -16.070312 1.816406 -16.582031 1.609375 -16.90625 C 1.398438 -17.238281 1.007812 -17.40625 0.4375 -17.40625 L 0.4375 -17.90625 C 0.9375 -17.851562 1.414062 -17.828125 1.875 -17.828125 C 2.507812 -17.828125 3.113281 -17.851562 3.6875 -17.90625 C 4.257812 -17.96875 4.785156 -18.050781 5.265625 -18.15625 Z M 5.265625 -18.15625 "/></g></g></g><g fill="#2f2f41" fill-opacity="1"><g transform="translate(57.834787, 23.225808)"><g><path d="M 5.265625 -15.8125 L 5.265625 -12 L 8.015625 -12 L 8.015625 -11.546875 L 5.265625 -11.546875 L 5.265625 -2.15625 C 5.265625 -1.695312 5.347656 -1.367188 5.515625 -1.171875 C 5.691406 -0.972656 5.953125 -0.875 6.296875 -0.875 C 6.566406 -0.875 6.84375 -0.976562 7.125 -1.1875 C 7.40625 -1.40625 7.65625 -1.769531 7.875 -2.28125 L 8.265625 -2.0625 C 8.015625 -1.363281 7.640625 -0.789062 7.140625 -0.34375 C 6.640625 0.101562 5.953125 0.328125 5.078125 0.328125 C 4.566406 0.328125 4.117188 0.257812 3.734375 0.125 C 3.347656 0 3.023438 -0.195312 2.765625 -0.46875 C 2.421875 -0.800781 2.191406 -1.21875 2.078125 -1.71875 C 1.972656 -2.226562 1.921875 -2.882812 1.921875 -3.6875 L 1.921875 -11.546875 L -0.015625 -11.546875 L -0.015625 -12 L 1.921875 -12 L 1.921875 -15.0625 C 2.578125 -15.0625 3.175781 -15.117188 3.71875 -15.234375 C 4.269531 -15.359375 4.785156 -15.550781 5.265625 -15.8125 Z M 5.265625 -15.8125 "/></g></g></g><g fill="#2f2f41" fill-opacity="1"><g transform="translate(66.010287, 23.225808)"><g><path d="M 5.15625 -12.328125 C 5.800781 -12.328125 6.367188 -12.242188 6.859375 -12.078125 C 7.347656 -11.921875 7.703125 -11.765625 7.921875 -11.609375 C 8.441406 -11.253906 8.765625 -11.488281 8.890625 -12.3125 L 9.375 -12.3125 C 9.34375 -11.875 9.316406 -11.34375 9.296875 -10.71875 C 9.285156 -10.09375 9.28125 -9.257812 9.28125 -8.21875 L 8.796875 -8.21875 C 8.722656 -8.789062 8.578125 -9.351562 8.359375 -9.90625 C 8.140625 -10.46875 7.820312 -10.925781 7.40625 -11.28125 C 7 -11.632812 6.472656 -11.8125 5.828125 -11.8125 C 5.378906 -11.8125 5 -11.679688 4.6875 -11.421875 C 4.375 -11.171875 4.21875 -10.804688 4.21875 -10.328125 C 4.21875 -9.867188 4.359375 -9.460938 4.640625 -9.109375 C 4.921875 -8.765625 5.28125 -8.429688 5.71875 -8.109375 C 6.164062 -7.796875 6.628906 -7.460938 7.109375 -7.109375 C 7.617188 -6.722656 8.082031 -6.335938 8.5 -5.953125 C 8.914062 -5.578125 9.25 -5.164062 9.5 -4.71875 C 9.75 -4.269531 9.875 -3.734375 9.875 -3.109375 C 9.875 -2.410156 9.671875 -1.800781 9.265625 -1.28125 C 8.859375 -0.769531 8.328125 -0.375 7.671875 -0.09375 C 7.015625 0.1875 6.285156 0.328125 5.484375 0.328125 C 5.015625 0.328125 4.597656 0.28125 4.234375 0.1875 C 3.867188 0.09375 3.554688 -0.0195312 3.296875 -0.15625 C 3.097656 -0.25 2.910156 -0.335938 2.734375 -0.421875 C 2.554688 -0.515625 2.390625 -0.59375 2.234375 -0.65625 C 2.078125 -0.695312 1.941406 -0.640625 1.828125 -0.484375 C 1.710938 -0.328125 1.625 -0.113281 1.5625 0.15625 L 1.0625 0.15625 C 1.09375 -0.332031 1.113281 -0.929688 1.125 -1.640625 C 1.144531 -2.359375 1.15625 -3.304688 1.15625 -4.484375 L 1.65625 -4.484375 C 1.738281 -3.648438 1.90625 -2.910156 2.15625 -2.265625 C 2.40625 -1.617188 2.742188 -1.113281 3.171875 -0.75 C 3.597656 -0.382812 4.132812 -0.203125 4.78125 -0.203125 C 5.039062 -0.203125 5.296875 -0.253906 5.546875 -0.359375 C 5.796875 -0.472656 6 -0.65625 6.15625 -0.90625 C 6.320312 -1.15625 6.40625 -1.472656 6.40625 -1.859375 C 6.40625 -2.535156 6.179688 -3.097656 5.734375 -3.546875 C 5.296875 -3.992188 4.738281 -4.484375 4.0625 -5.015625 C 3.5625 -5.421875 3.09375 -5.816406 2.65625 -6.203125 C 2.21875 -6.597656 1.859375 -7.03125 1.578125 -7.5 C 1.296875 -7.976562 1.15625 -8.519531 1.15625 -9.125 C 1.15625 -9.820312 1.34375 -10.410156 1.71875 -10.890625 C 2.09375 -11.367188 2.582031 -11.726562 3.1875 -11.96875 C 3.800781 -12.207031 4.457031 -12.328125 5.15625 -12.328125 Z M 5.15625 -12.328125 "/></g></g></g><g fill="#2f2f41" fill-opacity="1"><g transform="translate(76.74063, 23.225808)"><g><path d="M 3.765625 0.15625 C 3.066406 0.15625 2.484375 0.0234375 2.015625 -0.234375 C 1.554688 -0.492188 1.21875 -0.84375 1 -1.28125 C 0.78125 -1.726562 0.671875 -2.210938 0.671875 -2.734375 C 0.671875 -3.398438 0.820312 -3.941406 1.125 -4.359375 C 1.425781 -4.773438 1.816406 -5.113281 2.296875 -5.375 C 2.773438 -5.644531 3.28125 -5.863281 3.8125 -6.03125 C 4.351562 -6.207031 4.863281 -6.375 5.34375 -6.53125 C 5.832031 -6.695312 6.226562 -6.890625 6.53125 -7.109375 C 6.832031 -7.335938 6.984375 -7.628906 6.984375 -7.984375 L 6.984375 -9.796875 C 6.984375 -10.203125 6.914062 -10.5625 6.78125 -10.875 C 6.65625 -11.195312 6.457031 -11.441406 6.1875 -11.609375 C 5.914062 -11.773438 5.5625 -11.859375 5.125 -11.859375 C 4.820312 -11.859375 4.515625 -11.816406 4.203125 -11.734375 C 3.890625 -11.648438 3.632812 -11.507812 3.4375 -11.3125 C 3.875 -11.15625 4.210938 -10.914062 4.453125 -10.59375 C 4.691406 -10.28125 4.8125 -9.921875 4.8125 -9.515625 C 4.8125 -8.992188 4.628906 -8.578125 4.265625 -8.265625 C 3.898438 -7.953125 3.46875 -7.796875 2.96875 -7.796875 C 2.414062 -7.796875 1.992188 -7.96875 1.703125 -8.3125 C 1.421875 -8.664062 1.28125 -9.09375 1.28125 -9.59375 C 1.28125 -10.039062 1.390625 -10.410156 1.609375 -10.703125 C 1.835938 -10.992188 2.148438 -11.273438 2.546875 -11.546875 C 2.984375 -11.785156 3.503906 -11.972656 4.109375 -12.109375 C 4.722656 -12.253906 5.390625 -12.328125 6.109375 -12.328125 C 6.816406 -12.328125 7.457031 -12.253906 8.03125 -12.109375 C 8.601562 -11.960938 9.082031 -11.695312 9.46875 -11.3125 C 9.820312 -10.957031 10.050781 -10.519531 10.15625 -10 C 10.269531 -9.476562 10.328125 -8.820312 10.328125 -8.03125 L 10.328125 -1.71875 C 10.328125 -1.332031 10.363281 -1.066406 10.4375 -0.921875 C 10.519531 -0.773438 10.65625 -0.703125 10.84375 -0.703125 C 10.976562 -0.703125 11.113281 -0.738281 11.25 -0.8125 C 11.382812 -0.882812 11.523438 -0.976562 11.671875 -1.09375 L 11.90625 -0.703125 C 11.582031 -0.421875 11.207031 -0.207031 10.78125 -0.0625 C 10.351562 0.0820312 9.878906 0.15625 9.359375 0.15625 C 8.785156 0.15625 8.328125 0.078125 7.984375 -0.078125 C 7.640625 -0.242188 7.394531 -0.460938 7.25 -0.734375 C 7.101562 -1.015625 7.03125 -1.34375 7.03125 -1.71875 C 6.664062 -1.125 6.21875 -0.660156 5.6875 -0.328125 C 5.164062 -0.00390625 4.523438 0.15625 3.765625 0.15625 Z M 5.40625 -1.328125 C 5.71875 -1.328125 6 -1.398438 6.25 -1.546875 C 6.507812 -1.691406 6.753906 -1.9375 6.984375 -2.28125 L 6.984375 -7.03125 C 6.847656 -6.800781 6.65625 -6.59375 6.40625 -6.40625 C 6.15625 -6.21875 5.890625 -6.023438 5.609375 -5.828125 C 5.335938 -5.640625 5.070312 -5.429688 4.8125 -5.203125 C 4.5625 -4.972656 4.359375 -4.6875 4.203125 -4.34375 C 4.046875 -4 3.96875 -3.585938 3.96875 -3.109375 C 3.96875 -2.503906 4.097656 -2.054688 4.359375 -1.765625 C 4.628906 -1.472656 4.976562 -1.328125 5.40625 -1.328125 Z M 5.40625 -1.328125 "/></g></g></g><g fill="#2f2f41" fill-opacity="1"><g transform="translate(88.771622, 23.225808)"><g><path d="M 9.1875 -12.328125 C 9.84375 -12.328125 10.375 -12.242188 10.78125 -12.078125 C 11.195312 -11.921875 11.519531 -11.703125 11.75 -11.421875 C 12 -11.128906 12.179688 -10.75 12.296875 -10.28125 C 12.410156 -9.820312 12.46875 -9.195312 12.46875 -8.40625 L 12.46875 -2.15625 C 12.46875 -1.507812 12.578125 -1.066406 12.796875 -0.828125 C 13.023438 -0.597656 13.410156 -0.484375 13.953125 -0.484375 L 13.953125 0 C 13.660156 -0.0078125 13.21875 -0.0234375 12.625 -0.046875 C 12.039062 -0.078125 11.460938 -0.09375 10.890625 -0.09375 C 10.296875 -0.09375 9.71875 -0.078125 9.15625 -0.046875 C 8.59375 -0.0234375 8.164062 -0.0078125 7.875 0 L 7.875 -0.484375 C 8.332031 -0.484375 8.65625 -0.597656 8.84375 -0.828125 C 9.03125 -1.066406 9.125 -1.507812 9.125 -2.15625 L 9.125 -9.375 C 9.125 -9.757812 9.082031 -10.09375 9 -10.375 C 8.925781 -10.664062 8.785156 -10.894531 8.578125 -11.0625 C 8.378906 -11.226562 8.082031 -11.3125 7.6875 -11.3125 C 7.269531 -11.3125 6.882812 -11.191406 6.53125 -10.953125 C 6.1875 -10.722656 5.910156 -10.398438 5.703125 -9.984375 C 5.492188 -9.578125 5.390625 -9.117188 5.390625 -8.609375 L 5.390625 -2.15625 C 5.390625 -1.507812 5.484375 -1.066406 5.671875 -0.828125 C 5.867188 -0.597656 6.191406 -0.484375 6.640625 -0.484375 L 6.640625 0 C 6.359375 -0.0078125 5.953125 -0.0234375 5.421875 -0.046875 C 4.890625 -0.078125 4.335938 -0.09375 3.765625 -0.09375 C 3.171875 -0.09375 2.5625 -0.078125 1.9375 -0.046875 C 1.320312 -0.0234375 0.863281 -0.0078125 0.5625 0 L 0.5625 -0.484375 C 1.101562 -0.484375 1.484375 -0.597656 1.703125 -0.828125 C 1.929688 -1.066406 2.046875 -1.507812 2.046875 -2.15625 L 2.046875 -9.46875 C 2.046875 -10.164062 1.941406 -10.679688 1.734375 -11.015625 C 1.523438 -11.347656 1.132812 -11.515625 0.5625 -11.515625 L 0.5625 -12 C 1.050781 -11.957031 1.53125 -11.9375 2 -11.9375 C 2.644531 -11.9375 3.25 -11.960938 3.8125 -12.015625 C 4.382812 -12.066406 4.910156 -12.148438 5.390625 -12.265625 L 5.390625 -10.171875 C 5.773438 -10.960938 6.300781 -11.519531 6.96875 -11.84375 C 7.632812 -12.164062 8.375 -12.328125 9.1875 -12.328125 Z M 9.1875 -12.328125 "/></g></g></g><g fill="#2f2f41" fill-opacity="1"><g transform="translate(102.77681, 23.225808)"><g><path d="M 6.15625 -12 L 6.15625 -11.515625 C 5.8125 -11.515625 5.507812 -11.492188 5.25 -11.453125 C 5 -11.421875 4.832031 -11.3125 4.75 -11.125 C 4.664062 -10.9375 4.691406 -10.632812 4.828125 -10.21875 L 7.03125 -3.3125 L 6.734375 -3 L 9.453125 -12.03125 L 9.921875 -11.8125 L 6.359375 0.046875 C 6.109375 0.0234375 5.859375 0.015625 5.609375 0.015625 C 5.367188 0.015625 5.117188 0.0234375 4.859375 0.046875 L 1.1875 -10.21875 C 0.96875 -10.832031 0.726562 -11.203125 0.46875 -11.328125 C 0.21875 -11.453125 0.0078125 -11.515625 -0.15625 -11.515625 L -0.15625 -12 C 0.332031 -11.957031 0.84375 -11.921875 1.375 -11.890625 C 1.914062 -11.867188 2.503906 -11.859375 3.140625 -11.859375 C 3.617188 -11.859375 4.125 -11.875 4.65625 -11.90625 C 5.1875 -11.9375 5.6875 -11.96875 6.15625 -12 Z M 18.265625 -12 L 18.265625 -11.546875 C 17.972656 -11.460938 17.695312 -11.28125 17.4375 -11 C 17.175781 -10.726562 16.925781 -10.242188 16.6875 -9.546875 L 13.609375 0.046875 C 13.359375 0.0234375 13.101562 0.015625 12.84375 0.015625 C 12.59375 0.015625 12.34375 0.0234375 12.09375 0.046875 L 8.828125 -8.890625 L 9.453125 -12.03125 C 9.734375 -12.007812 10.015625 -12.003906 10.296875 -12.015625 C 10.585938 -12.023438 10.867188 -12.03125 11.140625 -12.03125 L 14.328125 -2.640625 L 14.078125 -2.90625 L 15.625 -7.828125 C 15.882812 -8.679688 15.984375 -9.367188 15.921875 -9.890625 C 15.859375 -10.421875 15.671875 -10.816406 15.359375 -11.078125 C 15.054688 -11.335938 14.640625 -11.492188 14.109375 -11.546875 L 14.109375 -12 C 14.359375 -11.988281 14.625 -11.976562 14.90625 -11.96875 C 15.195312 -11.957031 15.484375 -11.945312 15.765625 -11.9375 C 16.054688 -11.9375 16.304688 -11.9375 16.515625 -11.9375 C 16.816406 -11.9375 17.132812 -11.941406 17.46875 -11.953125 C 17.800781 -11.972656 18.066406 -11.988281 18.265625 -12 Z M 18.265625 -12 "/></g></g></g><g fill="#2f2f41" fill-opacity="1"><g transform="translate(120.800069, 23.225808)"><g><path d="M 3.765625 0.15625 C 3.066406 0.15625 2.484375 0.0234375 2.015625 -0.234375 C 1.554688 -0.492188 1.21875 -0.84375 1 -1.28125 C 0.78125 -1.726562 0.671875 -2.210938 0.671875 -2.734375 C 0.671875 -3.398438 0.820312 -3.941406 1.125 -4.359375 C 1.425781 -4.773438 1.816406 -5.113281 2.296875 -5.375 C 2.773438 -5.644531 3.28125 -5.863281 3.8125 -6.03125 C 4.351562 -6.207031 4.863281 -6.375 5.34375 -6.53125 C 5.832031 -6.695312 6.226562 -6.890625 6.53125 -7.109375 C 6.832031 -7.335938 6.984375 -7.628906 6.984375 -7.984375 L 6.984375 -9.796875 C 6.984375 -10.203125 6.914062 -10.5625 6.78125 -10.875 C 6.65625 -11.195312 6.457031 -11.441406 6.1875 -11.609375 C 5.914062 -11.773438 5.5625 -11.859375 5.125 -11.859375 C 4.820312 -11.859375 4.515625 -11.816406 4.203125 -11.734375 C 3.890625 -11.648438 3.632812 -11.507812 3.4375 -11.3125 C 3.875 -11.15625 4.210938 -10.914062 4.453125 -10.59375 C 4.691406 -10.28125 4.8125 -9.921875 4.8125 -9.515625 C 4.8125 -8.992188 4.628906 -8.578125 4.265625 -8.265625 C 3.898438 -7.953125 3.46875 -7.796875 2.96875 -7.796875 C 2.414062 -7.796875 1.992188 -7.96875 1.703125 -8.3125 C 1.421875 -8.664062 1.28125 -9.09375 1.28125 -9.59375 C 1.28125 -10.039062 1.390625 -10.410156 1.609375 -10.703125 C 1.835938 -10.992188 2.148438 -11.273438 2.546875 -11.546875 C 2.984375 -11.785156 3.503906 -11.972656 4.109375 -12.109375 C 4.722656 -12.253906 5.390625 -12.328125 6.109375 -12.328125 C 6.816406 -12.328125 7.457031 -12.253906 8.03125 -12.109375 C 8.601562 -11.960938 9.082031 -11.695312 9.46875 -11.3125 C 9.820312 -10.957031 10.050781 -10.519531 10.15625 -10 C 10.269531 -9.476562 10.328125 -8.820312 10.328125 -8.03125 L 10.328125 -1.71875 C 10.328125 -1.332031 10.363281 -1.066406 10.4375 -0.921875 C 10.519531 -0.773438 10.65625 -0.703125 10.84375 -0.703125 C 10.976562 -0.703125 11.113281 -0.738281 11.25 -0.8125 C 11.382812 -0.882812 11.523438 -0.976562 11.671875 -1.09375 L 11.90625 -0.703125 C 11.582031 -0.421875 11.207031 -0.207031 10.78125 -0.0625 C 10.351562 0.0820312 9.878906 0.15625 9.359375 0.15625 C 8.785156 0.15625 8.328125 0.078125 7.984375 -0.078125 C 7.640625 -0.242188 7.394531 -0.460938 7.25 -0.734375 C 7.101562 -1.015625 7.03125 -1.34375 7.03125 -1.71875 C 6.664062 -1.125 6.21875 -0.660156 5.6875 -0.328125 C 5.164062 -0.00390625 4.523438 0.15625 3.765625 0.15625 Z M 5.40625 -1.328125 C 5.71875 -1.328125 6 -1.398438 6.25 -1.546875 C 6.507812 -1.691406 6.753906 -1.9375 6.984375 -2.28125 L 6.984375 -7.03125 C 6.847656 -6.800781 6.65625 -6.59375 6.40625 -6.40625 C 6.15625 -6.21875 5.890625 -6.023438 5.609375 -5.828125 C 5.335938 -5.640625 5.070312 -5.429688 4.8125 -5.203125 C 4.5625 -4.972656 4.359375 -4.6875 4.203125 -4.34375 C 4.046875 -4 3.96875 -3.585938 3.96875 -3.109375 C 3.96875 -2.503906 4.097656 -2.054688 4.359375 -1.765625 C 4.628906 -1.472656 4.976562 -1.328125 5.40625 -1.328125 Z M 5.40625 -1.328125 "/></g></g></g><g fill="#2f2f41" fill-opacity="1"><g transform="translate(132.831062, 23.225808)"><g><path d="M 5.296875 -18.1875 L 5.296875 -2.15625 C 5.296875 -1.507812 5.40625 -1.066406 5.625 -0.828125 C 5.851562 -0.597656 6.238281 -0.484375 6.78125 -0.484375 L 6.78125 0 C 6.488281 -0.0078125 6.046875 -0.0234375 5.453125 -0.046875 C 4.867188 -0.078125 4.273438 -0.09375 3.671875 -0.09375 C 3.066406 -0.09375 2.457031 -0.078125 1.84375 -0.046875 C 1.226562 -0.0234375 0.769531 -0.0078125 0.46875 0 L 0.46875 -0.484375 C 1.007812 -0.484375 1.390625 -0.597656 1.609375 -0.828125 C 1.835938 -1.066406 1.953125 -1.507812 1.953125 -2.15625 L 1.953125 -15.390625 C 1.953125 -16.085938 1.847656 -16.601562 1.640625 -16.9375 C 1.429688 -17.269531 1.039062 -17.4375 0.46875 -17.4375 L 0.46875 -17.921875 C 0.957031 -17.878906 1.4375 -17.859375 1.90625 -17.859375 C 2.539062 -17.859375 3.144531 -17.882812 3.71875 -17.9375 C 4.289062 -17.988281 4.816406 -18.070312 5.296875 -18.1875 Z M 5.296875 -18.1875 "/></g></g></g><g fill="#2f2f41" fill-opacity="1"><g transform="translate(140.054307, 23.225808)"><g><path d="M 5.265625 -15.8125 L 5.265625 -12 L 8.015625 -12 L 8.015625 -11.546875 L 5.265625 -11.546875 L 5.265625 -2.15625 C 5.265625 -1.695312 5.347656 -1.367188 5.515625 -1.171875 C 5.691406 -0.972656 5.953125 -0.875 6.296875 -0.875 C 6.566406 -0.875 6.84375 -0.976562 7.125 -1.1875 C 7.40625 -1.40625 7.65625 -1.769531 7.875 -2.28125 L 8.265625 -2.0625 C 8.015625 -1.363281 7.640625 -0.789062 7.140625 -0.34375 C 6.640625 0.101562 5.953125 0.328125 5.078125 0.328125 C 4.566406 0.328125 4.117188 0.257812 3.734375 0.125 C 3.347656 0 3.023438 -0.195312 2.765625 -0.46875 C 2.421875 -0.800781 2.191406 -1.21875 2.078125 -1.71875 C 1.972656 -2.226562 1.921875 -2.882812 1.921875 -3.6875 L 1.921875 -11.546875 L -0.015625 -11.546875 L -0.015625 -12 L 1.921875 -12 L 1.921875 -15.0625 C 2.578125 -15.0625 3.175781 -15.117188 3.71875 -15.234375 C 4.269531 -15.359375 4.785156 -15.550781 5.265625 -15.8125 Z M 5.265625 -15.8125 "/></g></g></g><g fill="#2f2f41" fill-opacity="1"><g transform="translate(148.229807, 23.225808)"><g><path d="M 5.15625 -12.328125 C 5.800781 -12.328125 6.367188 -12.242188 6.859375 -12.078125 C 7.347656 -11.921875 7.703125 -11.765625 7.921875 -11.609375 C 8.441406 -11.253906 8.765625 -11.488281 8.890625 -12.3125 L 9.375 -12.3125 C 9.34375 -11.875 9.316406 -11.34375 9.296875 -10.71875 C 9.285156 -10.09375 9.28125 -9.257812 9.28125 -8.21875 L 8.796875 -8.21875 C 8.722656 -8.789062 8.578125 -9.351562 8.359375 -9.90625 C 8.140625 -10.46875 7.820312 -10.925781 7.40625 -11.28125 C 7 -11.632812 6.472656 -11.8125 5.828125 -11.8125 C 5.378906 -11.8125 5 -11.679688 4.6875 -11.421875 C 4.375 -11.171875 4.21875 -10.804688 4.21875 -10.328125 C 4.21875 -9.867188 4.359375 -9.460938 4.640625 -9.109375 C 4.921875 -8.765625 5.28125 -8.429688 5.71875 -8.109375 C 6.164062 -7.796875 6.628906 -7.460938 7.109375 -7.109375 C 7.617188 -6.722656 8.082031 -6.335938 8.5 -5.953125 C 8.914062 -5.578125 9.25 -5.164062 9.5 -4.71875 C 9.75 -4.269531 9.875 -3.734375 9.875 -3.109375 C 9.875 -2.410156 9.671875 -1.800781 9.265625 -1.28125 C 8.859375 -0.769531 8.328125 -0.375 7.671875 -0.09375 C 7.015625 0.1875 6.285156 0.328125 5.484375 0.328125 C 5.015625 0.328125 4.597656 0.28125 4.234375 0.1875 C 3.867188 0.09375 3.554688 -0.0195312 3.296875 -0.15625 C 3.097656 -0.25 2.910156 -0.335938 2.734375 -0.421875 C 2.554688 -0.515625 2.390625 -0.59375 2.234375 -0.65625 C 2.078125 -0.695312 1.941406 -0.640625 1.828125 -0.484375 C 1.710938 -0.328125 1.625 -0.113281 1.5625 0.15625 L 1.0625 0.15625 C 1.09375 -0.332031 1.113281 -0.929688 1.125 -1.640625 C 1.144531 -2.359375 1.15625 -3.304688 1.15625 -4.484375 L 1.65625 -4.484375 C 1.738281 -3.648438 1.90625 -2.910156 2.15625 -2.265625 C 2.40625 -1.617188 2.742188 -1.113281 3.171875 -0.75 C 3.597656 -0.382812 4.132812 -0.203125 4.78125 -0.203125 C 5.039062 -0.203125 5.296875 -0.253906 5.546875 -0.359375 C 5.796875 -0.472656 6 -0.65625 6.15625 -0.90625 C 6.320312 -1.15625 6.40625 -1.472656 6.40625 -1.859375 C 6.40625 -2.535156 6.179688 -3.097656 5.734375 -3.546875 C 5.296875 -3.992188 4.738281 -4.484375 4.0625 -5.015625 C 3.5625 -5.421875 3.09375 -5.816406 2.65625 -6.203125 C 2.21875 -6.597656 1.859375 -7.03125 1.578125 -7.5 C 1.296875 -7.976562 1.15625 -8.519531 1.15625 -9.125 C 1.15625 -9.820312 1.34375 -10.410156 1.71875 -10.890625 C 2.09375 -11.367188 2.582031 -11.726562 3.1875 -11.96875 C 3.800781 -12.207031 4.457031 -12.328125 5.15625 -12.328125 Z M 5.15625 -12.328125 "/></g></g></g><g fill="#2f2f41" fill-opacity="1"><g transform="translate(158.960149, 23.225808)"><g><path d="M 5.265625 -18.1875 L 5.265625 -2.15625 C 5.265625 -1.507812 5.367188 -1.066406 5.578125 -0.828125 C 5.785156 -0.597656 6.144531 -0.484375 6.65625 -0.484375 L 6.65625 0 C 6.363281 -0.0078125 5.9375 -0.0234375 5.375 -0.046875 C 4.8125 -0.078125 4.234375 -0.09375 3.640625 -0.09375 C 3.035156 -0.09375 2.425781 -0.078125 1.8125 -0.046875 C 1.207031 -0.0234375 0.75 -0.0078125 0.4375 0 L 0.4375 -0.484375 C 0.976562 -0.484375 1.359375 -0.597656 1.578125 -0.828125 C 1.804688 -1.066406 1.921875 -1.507812 1.921875 -2.15625 L 1.921875 -15.390625 C 1.921875 -16.085938 1.816406 -16.601562 1.609375 -16.9375 C 1.398438 -17.269531 1.007812 -17.4375 0.4375 -17.4375 L 0.4375 -17.921875 C 0.9375 -17.878906 1.414062 -17.859375 1.875 -17.859375 C 2.507812 -17.859375 3.113281 -17.882812 3.6875 -17.9375 C 4.257812 -17.988281 4.785156 -18.070312 5.265625 -18.1875 Z M 12.84375 -12 L 12.84375 -11.546875 C 12.363281 -11.453125 11.882812 -11.25 11.40625 -10.9375 C 10.925781 -10.625 10.4375 -10.226562 9.9375 -9.75 L 8.15625 -7.890625 L 8.375 -8.328125 L 12.359375 -1.6875 C 12.523438 -1.414062 12.703125 -1.171875 12.890625 -0.953125 C 13.078125 -0.734375 13.300781 -0.578125 13.5625 -0.484375 L 13.5625 0 C 13.332031 -0.0078125 12.984375 -0.0234375 12.515625 -0.046875 C 12.046875 -0.078125 11.582031 -0.09375 11.125 -0.09375 C 10.550781 -0.09375 9.976562 -0.078125 9.40625 -0.046875 C 8.832031 -0.0234375 8.40625 -0.0078125 8.125 0 L 8.125 -0.484375 C 8.4375 -0.484375 8.644531 -0.554688 8.75 -0.703125 C 8.863281 -0.847656 8.847656 -1.039062 8.703125 -1.28125 L 6.40625 -5.4375 C 6.21875 -5.726562 6.035156 -5.914062 5.859375 -6 C 5.679688 -6.082031 5.445312 -6.132812 5.15625 -6.15625 L 5.15625 -6.59375 C 5.476562 -6.625 5.757812 -6.675781 6 -6.75 C 6.238281 -6.832031 6.457031 -6.984375 6.65625 -7.203125 L 8.421875 -8.921875 C 8.953125 -9.410156 9.21875 -9.847656 9.21875 -10.234375 C 9.21875 -10.617188 9.050781 -10.925781 8.71875 -11.15625 C 8.382812 -11.394531 7.945312 -11.523438 7.40625 -11.546875 L 7.40625 -12 C 7.84375 -11.988281 8.316406 -11.972656 8.828125 -11.953125 C 9.335938 -11.941406 9.769531 -11.9375 10.125 -11.9375 C 10.4375 -11.9375 10.765625 -11.9375 11.109375 -11.9375 C 11.453125 -11.945312 11.78125 -11.957031 12.09375 -11.96875 C 12.40625 -11.976562 12.65625 -11.988281 12.84375 -12 Z M 12.84375 -12 "/></g></g></g><g fill="#2f2f41" fill-opacity="1"><g transform="translate(172.454362, 23.225808)"><g><path d="M 3.765625 0.15625 C 3.066406 0.15625 2.484375 0.0234375 2.015625 -0.234375 C 1.554688 -0.492188 1.21875 -0.84375 1 -1.28125 C 0.78125 -1.726562 0.671875 -2.210938 0.671875 -2.734375 C 0.671875 -3.398438 0.820312 -3.941406 1.125 -4.359375 C 1.425781 -4.773438 1.816406 -5.113281 2.296875 -5.375 C 2.773438 -5.644531 3.28125 -5.863281 3.8125 -6.03125 C 4.351562 -6.207031 4.863281 -6.375 5.34375 -6.53125 C 5.832031 -6.695312 6.226562 -6.890625 6.53125 -7.109375 C 6.832031 -7.335938 6.984375 -7.628906 6.984375 -7.984375 L 6.984375 -9.796875 C 6.984375 -10.203125 6.914062 -10.5625 6.78125 -10.875 C 6.65625 -11.195312 6.457031 -11.441406 6.1875 -11.609375 C 5.914062 -11.773438 5.5625 -11.859375 5.125 -11.859375 C 4.820312 -11.859375 4.515625 -11.816406 4.203125 -11.734375 C 3.890625 -11.648438 3.632812 -11.507812 3.4375 -11.3125 C 3.875 -11.15625 4.210938 -10.914062 4.453125 -10.59375 C 4.691406 -10.28125 4.8125 -9.921875 4.8125 -9.515625 C 4.8125 -8.992188 4.628906 -8.578125 4.265625 -8.265625 C 3.898438 -7.953125 3.46875 -7.796875 2.96875 -7.796875 C 2.414062 -7.796875 1.992188 -7.96875 1.703125 -8.3125 C 1.421875 -8.664062 1.28125 -9.09375 1.28125 -9.59375 C 1.28125 -10.039062 1.390625 -10.410156 1.609375 -10.703125 C 1.835938 -10.992188 2.148438 -11.273438 2.546875 -11.546875 C 2.984375 -11.785156 3.503906 -11.972656 4.109375 -12.109375 C 4.722656 -12.253906 5.390625 -12.328125 6.109375 -12.328125 C 6.816406 -12.328125 7.457031 -12.253906 8.03125 -12.109375 C 8.601562 -11.960938 9.082031 -11.695312 9.46875 -11.3125 C 9.820312 -10.957031 10.050781 -10.519531 10.15625 -10 C 10.269531 -9.476562 10.328125 -8.820312 10.328125 -8.03125 L 10.328125 -1.71875 C 10.328125 -1.332031 10.363281 -1.066406 10.4375 -0.921875 C 10.519531 -0.773438 10.65625 -0.703125 10.84375 -0.703125 C 10.976562 -0.703125 11.113281 -0.738281 11.25 -0.8125 C 11.382812 -0.882812 11.523438 -0.976562 11.671875 -1.09375 L 11.90625 -0.703125 C 11.582031 -0.421875 11.207031 -0.207031 10.78125 -0.0625 C 10.351562 0.0820312 9.878906 0.15625 9.359375 0.15625 C 8.785156 0.15625 8.328125 0.078125 7.984375 -0.078125 C 7.640625 -0.242188 7.394531 -0.460938 7.25 -0.734375 C 7.101562 -1.015625 7.03125 -1.34375 7.03125 -1.71875 C 6.664062 -1.125 6.21875 -0.660156 5.6875 -0.328125 C 5.164062 -0.00390625 4.523438 0.15625 3.765625 0.15625 Z M 5.40625 -1.328125 C 5.71875 -1.328125 6 -1.398438 6.25 -1.546875 C 6.507812 -1.691406 6.753906 -1.9375 6.984375 -2.28125 L 6.984375 -7.03125 C 6.847656 -6.800781 6.65625 -6.59375 6.40625 -6.40625 C 6.15625 -6.21875 5.890625 -6.023438 5.609375 -5.828125 C 5.335938 -5.640625 5.070312 -5.429688 4.8125 -5.203125 C 4.5625 -4.972656 4.359375 -4.6875 4.203125 -4.34375 C 4.046875 -4 3.96875 -3.585938 3.96875 -3.109375 C 3.96875 -2.503906 4.097656 -2.054688 4.359375 -1.765625 C 4.628906 -1.472656 4.976562 -1.328125 5.40625 -1.328125 Z M 5.40625 -1.328125 "/></g></g></g><g fill="#2f2f41" fill-opacity="1"><g transform="translate(184.485354, 23.225808)"><g><path d="M 9.1875 -12.328125 C 9.84375 -12.328125 10.375 -12.242188 10.78125 -12.078125 C 11.195312 -11.921875 11.519531 -11.703125 11.75 -11.421875 C 12 -11.128906 12.179688 -10.75 12.296875 -10.28125 C 12.410156 -9.820312 12.46875 -9.195312 12.46875 -8.40625 L 12.46875 -2.15625 C 12.46875 -1.507812 12.578125 -1.066406 12.796875 -0.828125 C 13.023438 -0.597656 13.410156 -0.484375 13.953125 -0.484375 L 13.953125 0 C 13.660156 -0.0078125 13.21875 -0.0234375 12.625 -0.046875 C 12.039062 -0.078125 11.460938 -0.09375 10.890625 -0.09375 C 10.296875 -0.09375 9.71875 -0.078125 9.15625 -0.046875 C 8.59375 -0.0234375 8.164062 -0.0078125 7.875 0 L 7.875 -0.484375 C 8.332031 -0.484375 8.65625 -0.597656 8.84375 -0.828125 C 9.03125 -1.066406 9.125 -1.507812 9.125 -2.15625 L 9.125 -9.375 C 9.125 -9.757812 9.082031 -10.09375 9 -10.375 C 8.925781 -10.664062 8.785156 -10.894531 8.578125 -11.0625 C 8.378906 -11.226562 8.082031 -11.3125 7.6875 -11.3125 C 7.269531 -11.3125 6.882812 -11.191406 6.53125 -10.953125 C 6.1875 -10.722656 5.910156 -10.398438 5.703125 -9.984375 C 5.492188 -9.578125 5.390625 -9.117188 5.390625 -8.609375 L 5.390625 -2.15625 C 5.390625 -1.507812 5.484375 -1.066406 5.671875 -0.828125 C 5.867188 -0.597656 6.191406 -0.484375 6.640625 -0.484375 L 6.640625 0 C 6.359375 -0.0078125 5.953125 -0.0234375 5.421875 -0.046875 C 4.890625 -0.078125 4.335938 -0.09375 3.765625 -0.09375 C 3.171875 -0.09375 2.5625 -0.078125 1.9375 -0.046875 C 1.320312 -0.0234375 0.863281 -0.0078125 0.5625 0 L 0.5625 -0.484375 C 1.101562 -0.484375 1.484375 -0.597656 1.703125 -0.828125 C 1.929688 -1.066406 2.046875 -1.507812 2.046875 -2.15625 L 2.046875 -9.46875 C 2.046875 -10.164062 1.941406 -10.679688 1.734375 -11.015625 C 1.523438 -11.347656 1.132812 -11.515625 0.5625 -11.515625 L 0.5625 -12 C 1.050781 -11.957031 1.53125 -11.9375 2 -11.9375 C 2.644531 -11.9375 3.25 -11.960938 3.8125 -12.015625 C 4.382812 -12.066406 4.910156 -12.148438 5.390625 -12.265625 L 5.390625 -10.171875 C 5.773438 -10.960938 6.300781 -11.519531 6.96875 -11.84375 C 7.632812 -12.164062 8.375 -12.328125 9.1875 -12.328125 Z M 9.1875 -12.328125 "/></g></g></g><g fill="#2f2f41" fill-opacity="1"><g transform="translate(198.746029, 23.225808)"><g><path d="M 10.3125 -12.125 L 4.5 -0.34375 L 5.71875 -0.34375 C 6.320312 -0.34375 6.890625 -0.46875 7.421875 -0.71875 C 7.953125 -0.976562 8.398438 -1.410156 8.765625 -2.015625 C 9.128906 -2.617188 9.347656 -3.445312 9.421875 -4.5 L 9.921875 -4.5 C 9.921875 -3.375 9.925781 -2.453125 9.9375 -1.734375 C 9.945312 -1.015625 9.96875 -0.40625 10 0.09375 C 9.3125 0.0625 8.585938 0.0351562 7.828125 0.015625 C 7.066406 0.00390625 6.304688 0 5.546875 0 C 4.753906 0 3.941406 0.0078125 3.109375 0.03125 C 2.273438 0.0507812 1.476562 0.078125 0.71875 0.109375 L 6.53125 -11.65625 L 5.21875 -11.65625 C 4.601562 -11.65625 4.035156 -11.523438 3.515625 -11.265625 C 2.992188 -11.015625 2.566406 -10.582031 2.234375 -9.96875 C 1.898438 -9.363281 1.691406 -8.539062 1.609375 -7.5 L 1.109375 -7.5 C 1.109375 -8.644531 1.097656 -9.570312 1.078125 -10.28125 C 1.066406 -11 1.046875 -11.601562 1.015625 -12.09375 C 1.734375 -12.0625 2.46875 -12.035156 3.21875 -12.015625 C 3.976562 -12.003906 4.734375 -12 5.484375 -12 C 6.285156 -12 7.097656 -12.007812 7.921875 -12.03125 C 8.753906 -12.0625 9.550781 -12.09375 10.3125 -12.125 Z M 10.3125 -12.125 "/></g></g></g><g fill="#2f2f41" fill-opacity="1"><g transform="translate(209.755083, 23.225808)"><g><path d="M 5.296875 -18.1875 L 5.296875 -2.15625 C 5.296875 -1.507812 5.40625 -1.066406 5.625 -0.828125 C 5.851562 -0.597656 6.238281 -0.484375 6.78125 -0.484375 L 6.78125 0 C 6.488281 -0.0078125 6.046875 -0.0234375 5.453125 -0.046875 C 4.867188 -0.078125 4.273438 -0.09375 3.671875 -0.09375 C 3.066406 -0.09375 2.457031 -0.078125 1.84375 -0.046875 C 1.226562 -0.0234375 0.769531 -0.0078125 0.46875 0 L 0.46875 -0.484375 C 1.007812 -0.484375 1.390625 -0.597656 1.609375 -0.828125 C 1.835938 -1.066406 1.953125 -1.507812 1.953125 -2.15625 L 1.953125 -15.390625 C 1.953125 -16.085938 1.847656 -16.601562 1.640625 -16.9375 C 1.429688 -17.269531 1.039062 -17.4375 0.46875 -17.4375 L 0.46875 -17.921875 C 0.957031 -17.878906 1.4375 -17.859375 1.90625 -17.859375 C 2.539062 -17.859375 3.144531 -17.882812 3.71875 -17.9375 C 4.289062 -17.988281 4.816406 -18.070312 5.296875 -18.1875 Z M 5.296875 -18.1875 "/></g></g></g><g fill="#2f2f41" fill-opacity="1"><g transform="translate(216.746065, 23.225808)"><g><path d="M 6.546875 -12.328125 C 7.910156 -12.328125 8.976562 -11.925781 9.75 -11.125 C 10.519531 -10.320312 10.90625 -9.003906 10.90625 -7.171875 L 3.28125 -7.171875 L 3.234375 -7.609375 L 7.984375 -7.609375 C 8.003906 -8.367188 7.957031 -9.070312 7.84375 -9.71875 C 7.738281 -10.363281 7.566406 -10.878906 7.328125 -11.265625 C 7.097656 -11.648438 6.789062 -11.84375 6.40625 -11.84375 C 5.863281 -11.84375 5.398438 -11.5 5.015625 -10.8125 C 4.640625 -10.132812 4.414062 -9.007812 4.34375 -7.4375 L 4.40625 -7.296875 C 4.394531 -7.109375 4.382812 -6.910156 4.375 -6.703125 C 4.363281 -6.503906 4.359375 -6.296875 4.359375 -6.078125 C 4.359375 -5.015625 4.507812 -4.148438 4.8125 -3.484375 C 5.113281 -2.816406 5.492188 -2.332031 5.953125 -2.03125 C 6.421875 -1.726562 6.898438 -1.578125 7.390625 -1.578125 C 7.710938 -1.578125 8.046875 -1.625 8.390625 -1.71875 C 8.742188 -1.820312 9.097656 -2.007812 9.453125 -2.28125 C 9.804688 -2.550781 10.140625 -2.9375 10.453125 -3.4375 L 10.859375 -3.296875 C 10.679688 -2.710938 10.390625 -2.140625 9.984375 -1.578125 C 9.578125 -1.023438 9.0625 -0.566406 8.4375 -0.203125 C 7.820312 0.148438 7.082031 0.328125 6.21875 0.328125 C 5.164062 0.328125 4.238281 0.101562 3.4375 -0.34375 C 2.632812 -0.789062 2.003906 -1.472656 1.546875 -2.390625 C 1.085938 -3.304688 0.859375 -4.46875 0.859375 -5.875 C 0.859375 -7.3125 1.101562 -8.507812 1.59375 -9.46875 C 2.082031 -10.425781 2.753906 -11.140625 3.609375 -11.609375 C 4.472656 -12.085938 5.453125 -12.328125 6.546875 -12.328125 Z M 6.546875 -12.328125 "/></g></g></g><g fill="#2f2f41" fill-opacity="1"><g transform="translate(228.451886, 23.225808)"><g><path d="M 3.578125 -18 C 4.234375 -18 4.75 -17.835938 5.125 -17.515625 C 5.5 -17.203125 5.6875 -16.765625 5.6875 -16.203125 C 5.6875 -15.648438 5.5 -15.210938 5.125 -14.890625 C 4.75 -14.578125 4.234375 -14.421875 3.578125 -14.421875 C 2.929688 -14.421875 2.414062 -14.578125 2.03125 -14.890625 C 1.65625 -15.210938 1.46875 -15.648438 1.46875 -16.203125 C 1.46875 -16.765625 1.65625 -17.203125 2.03125 -17.515625 C 2.414062 -17.835938 2.929688 -18 3.578125 -18 Z M 5.390625 -12.265625 L 5.390625 -2.15625 C 5.390625 -1.507812 5.5 -1.066406 5.71875 -0.828125 C 5.945312 -0.597656 6.332031 -0.484375 6.875 -0.484375 L 6.875 0 C 6.59375 -0.0078125 6.15625 -0.0234375 5.5625 -0.046875 C 4.976562 -0.078125 4.382812 -0.09375 3.78125 -0.09375 C 3.175781 -0.09375 2.5625 -0.078125 1.9375 -0.046875 C 1.320312 -0.0234375 0.863281 -0.0078125 0.5625 0 L 0.5625 -0.484375 C 1.101562 -0.484375 1.484375 -0.597656 1.703125 -0.828125 C 1.929688 -1.066406 2.046875 -1.507812 2.046875 -2.15625 L 2.046875 -9.46875 C 2.046875 -10.164062 1.941406 -10.679688 1.734375 -11.015625 C 1.523438 -11.347656 1.132812 -11.515625 0.5625 -11.515625 L 0.5625 -12 C 1.050781 -11.957031 1.53125 -11.9375 2 -11.9375 C 2.644531 -11.9375 3.25 -11.960938 3.8125 -12.015625 C 4.382812 -12.066406 4.910156 -12.148438 5.390625 -12.265625 Z M 5.390625 -12.265625 "/></g></g></g><g fill="#000000" fill-opacity="1"><g transform="translate(235.777467, 23.225808)"><g/></g></g><g fill="#e5261f" fill-opacity="1"><g transform="translate(240.291076, 23.225808)"><g><path d="M 8.546875 -16.484375 L 14.1875 -1.953125 C 14.40625 -1.390625 14.648438 -1.003906 14.921875 -0.796875 C 15.191406 -0.585938 15.4375 -0.476562 15.65625 -0.46875 L 15.65625 0 C 15.1875 -0.03125 14.640625 -0.046875 14.015625 -0.046875 C 13.390625 -0.0546875 12.757812 -0.0625 12.125 -0.0625 C 11.40625 -0.0625 10.726562 -0.0546875 10.09375 -0.046875 C 9.457031 -0.046875 8.957031 -0.03125 8.59375 0 L 8.59375 -0.46875 C 9.382812 -0.5 9.882812 -0.632812 10.09375 -0.875 C 10.300781 -1.113281 10.25 -1.628906 9.9375 -2.421875 L 5.984375 -13.21875 L 6.40625 -13.8125 L 2.875 -4.625 C 2.539062 -3.769531 2.335938 -3.070312 2.265625 -2.53125 C 2.191406 -1.988281 2.226562 -1.566406 2.375 -1.265625 C 2.519531 -0.972656 2.757812 -0.769531 3.09375 -0.65625 C 3.425781 -0.539062 3.828125 -0.476562 4.296875 -0.46875 L 4.296875 0 C 3.785156 -0.03125 3.296875 -0.046875 2.828125 -0.046875 C 2.367188 -0.0546875 1.898438 -0.0625 1.421875 -0.0625 C 1.078125 -0.0625 0.753906 -0.0546875 0.453125 -0.046875 C 0.148438 -0.046875 -0.113281 -0.03125 -0.34375 0 L -0.34375 -0.46875 C -0.0195312 -0.53125 0.304688 -0.738281 0.640625 -1.09375 C 0.984375 -1.445312 1.320312 -2.050781 1.65625 -2.90625 L 6.9375 -16.484375 C 7.1875 -16.472656 7.453125 -16.46875 7.734375 -16.46875 C 8.023438 -16.46875 8.296875 -16.472656 8.546875 -16.484375 Z M 10.171875 -6.6875 L 10.171875 -6.21875 L 3.25 -6.21875 L 3.484375 -6.6875 Z M 10.171875 -6.6875 "/></g></g></g><g fill="#e5261f" fill-opacity="1"><g transform="translate(255.782717, 23.225808)"><g><path d="M 11.90625 -12 L 11.90625 -11.546875 C 11.613281 -11.460938 11.335938 -11.273438 11.078125 -10.984375 C 10.816406 -10.703125 10.5625 -10.222656 10.3125 -9.546875 L 7.03125 -0.34375 L 6.171875 1.28125 L 1.109375 -10.21875 C 0.847656 -10.820312 0.585938 -11.1875 0.328125 -11.3125 C 0.078125 -11.445312 -0.140625 -11.515625 -0.328125 -11.515625 L -0.328125 -12 C 0.179688 -11.957031 0.710938 -11.921875 1.265625 -11.890625 C 1.816406 -11.867188 2.347656 -11.859375 2.859375 -11.859375 C 3.492188 -11.859375 4.070312 -11.875 4.59375 -11.90625 C 5.125 -11.9375 5.617188 -11.96875 6.078125 -12 L 6.078125 -11.515625 C 5.773438 -11.515625 5.488281 -11.492188 5.21875 -11.453125 C 4.945312 -11.421875 4.757812 -11.3125 4.65625 -11.125 C 4.550781 -10.945312 4.59375 -10.644531 4.78125 -10.21875 L 7.703125 -3.15625 L 7.5 -3.015625 L 9.21875 -7.828125 C 9.507812 -8.660156 9.628906 -9.34375 9.578125 -9.875 C 9.535156 -10.414062 9.367188 -10.820312 9.078125 -11.09375 C 8.785156 -11.363281 8.382812 -11.515625 7.875 -11.546875 L 7.875 -12 C 8.125 -11.988281 8.378906 -11.976562 8.640625 -11.96875 C 8.898438 -11.957031 9.160156 -11.945312 9.421875 -11.9375 C 9.691406 -11.9375 9.925781 -11.9375 10.125 -11.9375 C 10.4375 -11.9375 10.757812 -11.941406 11.09375 -11.953125 C 11.4375 -11.972656 11.707031 -11.988281 11.90625 -12 Z M 7.03125 -0.34375 L 6.15625 2.140625 C 6 2.523438 5.835938 2.851562 5.671875 3.125 C 5.515625 3.394531 5.332031 3.613281 5.125 3.78125 C 4.914062 3.96875 4.640625 4.109375 4.296875 4.203125 C 3.953125 4.304688 3.554688 4.359375 3.109375 4.359375 C 2.734375 4.359375 2.347656 4.296875 1.953125 4.171875 C 1.566406 4.054688 1.238281 3.859375 0.96875 3.578125 C 0.707031 3.296875 0.578125 2.9375 0.578125 2.5 C 0.578125 2.019531 0.75 1.632812 1.09375 1.34375 C 1.4375 1.0625 1.882812 0.921875 2.4375 0.921875 C 2.945312 0.921875 3.363281 1.046875 3.6875 1.296875 C 4.007812 1.546875 4.171875 1.910156 4.171875 2.390625 C 4.171875 2.703125 4.070312 2.992188 3.875 3.265625 C 3.6875 3.546875 3.398438 3.757812 3.015625 3.90625 C 3.097656 3.914062 3.191406 3.921875 3.296875 3.921875 C 3.398438 3.921875 3.484375 3.921875 3.546875 3.921875 C 4.015625 3.921875 4.425781 3.773438 4.78125 3.484375 C 5.132812 3.191406 5.429688 2.726562 5.671875 2.09375 L 6.484375 -0.296875 Z M 7.03125 -0.34375 "/></g></g></g><g fill="#e5261f" fill-opacity="1"><g transform="translate(267.581447, 23.225808)"><g><path d="M 3.765625 0.15625 C 3.066406 0.15625 2.484375 0.0234375 2.015625 -0.234375 C 1.554688 -0.492188 1.21875 -0.84375 1 -1.28125 C 0.78125 -1.726562 0.671875 -2.210938 0.671875 -2.734375 C 0.671875 -3.398438 0.820312 -3.941406 1.125 -4.359375 C 1.425781 -4.773438 1.816406 -5.113281 2.296875 -5.375 C 2.773438 -5.644531 3.28125 -5.863281 3.8125 -6.03125 C 4.351562 -6.207031 4.863281 -6.375 5.34375 -6.53125 C 5.832031 -6.695312 6.226562 -6.890625 6.53125 -7.109375 C 6.832031 -7.335938 6.984375 -7.628906 6.984375 -7.984375 L 6.984375 -9.796875 C 6.984375 -10.203125 6.914062 -10.5625 6.78125 -10.875 C 6.65625 -11.195312 6.457031 -11.441406 6.1875 -11.609375 C 5.914062 -11.773438 5.5625 -11.859375 5.125 -11.859375 C 4.820312 -11.859375 4.515625 -11.816406 4.203125 -11.734375 C 3.890625 -11.648438 3.632812 -11.507812 3.4375 -11.3125 C 3.875 -11.15625 4.210938 -10.914062 4.453125 -10.59375 C 4.691406 -10.28125 4.8125 -9.921875 4.8125 -9.515625 C 4.8125 -8.992188 4.628906 -8.578125 4.265625 -8.265625 C 3.898438 -7.953125 3.46875 -7.796875 2.96875 -7.796875 C 2.414062 -7.796875 1.992188 -7.96875 1.703125 -8.3125 C 1.421875 -8.664062 1.28125 -9.09375 1.28125 -9.59375 C 1.28125 -10.039062 1.390625 -10.410156 1.609375 -10.703125 C 1.835938 -10.992188 2.148438 -11.273438 2.546875 -11.546875 C 2.984375 -11.785156 3.503906 -11.972656 4.109375 -12.109375 C 4.722656 -12.253906 5.390625 -12.328125 6.109375 -12.328125 C 6.816406 -12.328125 7.457031 -12.253906 8.03125 -12.109375 C 8.601562 -11.960938 9.082031 -11.695312 9.46875 -11.3125 C 9.820312 -10.957031 10.050781 -10.519531 10.15625 -10 C 10.269531 -9.476562 10.328125 -8.820312 10.328125 -8.03125 L 10.328125 -1.71875 C 10.328125 -1.332031 10.363281 -1.066406 10.4375 -0.921875 C 10.519531 -0.773438 10.65625 -0.703125 10.84375 -0.703125 C 10.976562 -0.703125 11.113281 -0.738281 11.25 -0.8125 C 11.382812 -0.882812 11.523438 -0.976562 11.671875 -1.09375 L 11.90625 -0.703125 C 11.582031 -0.421875 11.207031 -0.207031 10.78125 -0.0625 C 10.351562 0.0820312 9.878906 0.15625 9.359375 0.15625 C 8.785156 0.15625 8.328125 0.078125 7.984375 -0.078125 C 7.640625 -0.242188 7.394531 -0.460938 7.25 -0.734375 C 7.101562 -1.015625 7.03125 -1.34375 7.03125 -1.71875 C 6.664062 -1.125 6.21875 -0.660156 5.6875 -0.328125 C 5.164062 -0.00390625 4.523438 0.15625 3.765625 0.15625 Z M 5.40625 -1.328125 C 5.71875 -1.328125 6 -1.398438 6.25 -1.546875 C 6.507812 -1.691406 6.753906 -1.9375 6.984375 -2.28125 L 6.984375 -7.03125 C 6.847656 -6.800781 6.65625 -6.59375 6.40625 -6.40625 C 6.15625 -6.21875 5.890625 -6.023438 5.609375 -5.828125 C 5.335938 -5.640625 5.070312 -5.429688 4.8125 -5.203125 C 4.5625 -4.972656 4.359375 -4.6875 4.203125 -4.34375 C 4.046875 -4 3.96875 -3.585938 3.96875 -3.109375 C 3.96875 -2.503906 4.097656 -2.054688 4.359375 -1.765625 C 4.628906 -1.472656 4.976562 -1.328125 5.40625 -1.328125 Z M 5.40625 -1.328125 "/></g></g></g><g fill="#e5261f" fill-opacity="1"><g transform="translate(279.612439, 23.225808)"><g><path d="M 10.3125 -12.125 L 4.5 -0.34375 L 5.71875 -0.34375 C 6.320312 -0.34375 6.890625 -0.46875 7.421875 -0.71875 C 7.953125 -0.976562 8.398438 -1.410156 8.765625 -2.015625 C 9.128906 -2.617188 9.347656 -3.445312 9.421875 -4.5 L 9.921875 -4.5 C 9.921875 -3.375 9.925781 -2.453125 9.9375 -1.734375 C 9.945312 -1.015625 9.96875 -0.40625 10 0.09375 C 9.3125 0.0625 8.585938 0.0351562 7.828125 0.015625 C 7.066406 0.00390625 6.304688 0 5.546875 0 C 4.753906 0 3.941406 0.0078125 3.109375 0.03125 C 2.273438 0.0507812 1.476562 0.078125 0.71875 0.109375 L 6.53125 -11.65625 L 5.21875 -11.65625 C 4.601562 -11.65625 4.035156 -11.523438 3.515625 -11.265625 C 2.992188 -11.015625 2.566406 -10.582031 2.234375 -9.96875 C 1.898438 -9.363281 1.691406 -8.539062 1.609375 -7.5 L 1.109375 -7.5 C 1.109375 -8.644531 1.097656 -9.570312 1.078125 -10.28125 C 1.066406 -11 1.046875 -11.601562 1.015625 -12.09375 C 1.734375 -12.0625 2.46875 -12.035156 3.21875 -12.015625 C 3.976562 -12.003906 4.734375 -12 5.484375 -12 C 6.285156 -12 7.097656 -12.007812 7.921875 -12.03125 C 8.753906 -12.0625 9.550781 -12.09375 10.3125 -12.125 Z M 10.3125 -12.125 "/></g></g></g></svg>